<?xml version="1.0" standalone="no"?>
<!DOCTYPE svg PUBLIC "-//W3C//DTD SVG 20010904//EN"
 "http://www.w3.org/TR/2001/REC-SVG-20010904/DTD/svg10.dtd">
<svg version="1.0" xmlns="http://www.w3.org/2000/svg"
 width="2273.000000pt" height="2273.000000pt" viewBox="0 0 2273.000000 2273.000000"
 preserveAspectRatio="xMidYMid meet">
<metadata>
Created by potrace 1.11, written by Peter Selinger 2001-2013
</metadata>
<g transform="translate(0.000000,2273.000000) scale(0.100000,-0.100000)"
fill="#000000" stroke="none">
<path d="M11356 22718 c4 -7 3 -8 -5 -4 -7 4 -20 -2 -32 -16 -11 -13 -17 -17
-14 -10 6 11 3 11 -13 1 -12 -7 -19 -17 -16 -21 3 -4 -3 -5 -12 -1 -12 4 -15
3 -10 -5 5 -8 2 -10 -8 -6 -9 3 -16 1 -16 -5 0 -6 -6 -11 -14 -11 -8 0 -17 -7
-20 -16 -3 -8 -11 -12 -17 -8 -7 4 -20 -4 -31 -17 -11 -13 -17 -18 -13 -12 4
9 1 11 -9 7 -9 -3 -13 -10 -10 -15 3 -5 -1 -6 -9 -3 -8 3 -17 -2 -21 -11 -3
-9 -10 -13 -16 -10 -5 3 -10 1 -10 -4 0 -6 -6 -10 -12 -8 -7 1 -12 -3 -11 -10
2 -7 -3 -10 -11 -7 -8 3 -24 -4 -35 -15 -12 -12 -21 -18 -21 -15 0 3 -13 -4
-29 -15 -16 -12 -32 -21 -36 -21 -4 0 -14 -8 -22 -17 -8 -10 -12 -12 -8 -6 10
21 -24 3 -36 -18 -5 -11 -15 -19 -22 -18 -25 3 -38 -1 -32 -11 3 -5 -3 -10
-14 -10 -12 0 -21 -4 -21 -8 0 -5 -18 -16 -40 -26 -22 -10 -38 -22 -35 -27 4
-5 -2 -6 -11 -2 -13 5 -15 3 -9 -7 5 -7 4 -11 -1 -8 -15 9 -56 -11 -48 -23 4
-8 3 -9 -4 -5 -7 4 -12 3 -12 -3 0 -6 -7 -7 -17 -4 -9 4 -14 2 -10 -3 3 -6 -3
-16 -15 -23 -16 -10 -19 -10 -12 1 5 7 -5 4 -21 -6 -17 -11 -40 -25 -52 -31
-13 -7 -20 -15 -16 -18 3 -4 -2 -7 -11 -7 -27 0 -96 -42 -89 -53 3 -6 1 -7 -5
-3 -6 3 -17 0 -25 -8 -8 -8 -17 -12 -21 -9 -3 4 -6 0 -6 -7 0 -7 -3 -10 -7 -7
-3 4 -12 -1 -20 -11 -8 -9 -11 -11 -8 -4 4 8 -9 3 -28 -9 -19 -13 -33 -27 -31
-31 3 -4 -2 -5 -10 -2 -9 3 -16 1 -16 -5 0 -6 -9 -11 -20 -11 -11 0 -25 -9
-32 -19 -6 -10 -17 -17 -25 -14 -7 3 -16 -2 -19 -11 -3 -9 -14 -16 -23 -16 -9
0 -23 -9 -30 -19 -8 -11 -21 -17 -29 -13 -10 4 -13 1 -8 -7 6 -8 2 -11 -10 -9
-11 2 -18 -2 -17 -9 2 -7 -3 -10 -11 -7 -8 3 -23 -3 -34 -14 -11 -11 -23 -18
-26 -14 -3 3 -6 0 -6 -7 0 -7 -4 -9 -10 -6 -5 3 -10 1 -10 -4 0 -6 -6 -10 -12
-9 -7 2 -12 -2 -11 -9 2 -8 -4 -10 -14 -6 -11 4 -14 3 -9 -5 4 -8 2 -10 -7 -6
-9 3 -22 -4 -30 -16 -9 -12 -20 -19 -26 -15 -6 3 -11 1 -11 -4 0 -6 -6 -10
-12 -9 -7 2 -12 -2 -11 -9 2 -7 -3 -10 -10 -7 -7 2 -21 -3 -32 -12 -11 -8 -14
-12 -6 -8 9 4 12 3 7 -4 -4 -6 -14 -8 -23 -5 -12 5 -14 3 -8 -7 6 -10 4 -12
-8 -7 -10 3 -17 2 -17 -3 0 -6 -6 -9 -12 -8 -7 2 -12 -2 -11 -9 2 -7 -3 -10
-11 -7 -8 3 -23 -3 -34 -14 -11 -11 -23 -18 -26 -15 -3 4 -6 1 -6 -5 0 -7 -6
-11 -12 -10 -7 2 -12 -3 -10 -10 1 -8 -2 -11 -8 -7 -6 4 -18 -1 -26 -11 -9
-11 -13 -13 -9 -7 4 8 1 11 -9 7 -8 -3 -17 -12 -20 -20 -3 -9 -10 -13 -15 -10
-5 3 -11 -1 -15 -9 -3 -8 -15 -15 -26 -15 -12 0 -18 -4 -15 -10 4 -6 -1 -7
-11 -3 -12 4 -15 3 -10 -5 5 -8 2 -10 -8 -6 -9 3 -16 1 -16 -5 0 -6 -7 -11
-15 -11 -9 0 -28 -12 -42 -27 -15 -16 -23 -22 -18 -14 5 8 -8 5 -33 -9 -23
-13 -39 -27 -36 -32 3 -5 -2 -8 -12 -6 -11 2 -18 -2 -17 -9 2 -8 -4 -10 -14
-6 -11 4 -14 3 -9 -5 5 -8 1 -10 -10 -5 -12 4 -15 3 -10 -5 5 -8 2 -10 -8 -6
-9 3 -16 2 -16 -4 0 -5 -13 -15 -30 -22 -16 -7 -27 -16 -24 -21 3 -5 -2 -6
-10 -3 -9 3 -16 1 -16 -5 0 -6 -6 -10 -12 -9 -7 2 -12 -2 -11 -9 1 -6 -4 -14
-13 -17 -8 -3 -12 -2 -9 4 10 16 -45 -17 -61 -36 -9 -11 -12 -12 -8 -4 7 13 6
13 -12 0 -10 -8 -22 -19 -26 -25 -5 -6 -8 -6 -8 -1 0 6 -7 1 -16 -10 -8 -10
-12 -13 -8 -5 5 10 -2 9 -24 -4 -17 -10 -29 -22 -26 -27 3 -4 -2 -5 -10 -2 -9
3 -16 1 -16 -6 0 -6 -4 -8 -10 -5 -5 3 -10 -1 -10 -10 0 -11 -5 -15 -15 -11
-8 3 -15 1 -15 -4 0 -6 -6 -9 -12 -8 -7 2 -12 -2 -11 -9 2 -8 -4 -10 -14 -6
-11 4 -14 3 -9 -5 4 -8 2 -10 -8 -6 -8 3 -23 -3 -34 -14 -11 -11 -23 -18 -26
-14 -3 3 -6 0 -6 -6 0 -7 -6 -11 -12 -10 -7 2 -12 -3 -10 -10 1 -8 -2 -11 -8
-7 -6 4 -18 -1 -26 -11 -9 -11 -12 -13 -9 -6 6 11 3 12 -14 3 -11 -7 -21 -16
-21 -22 0 -6 -4 -7 -10 -4 -5 3 -10 1 -10 -4 0 -6 -6 -10 -12 -9 -7 2 -12 -3
-10 -10 1 -8 -2 -11 -7 -8 -5 4 -12 2 -16 -4 -4 -6 -11 -8 -16 -5 -5 4 -9 1
-9 -4 0 -6 -6 -10 -12 -8 -7 1 -12 -4 -10 -12 2 -8 -3 -11 -13 -8 -8 4 -15 2
-15 -4 0 -6 -4 -7 -10 -4 -5 3 -10 1 -10 -4 0 -6 -7 -11 -16 -11 -8 0 -13 -4
-10 -8 2 -4 -5 -9 -16 -9 -12 -1 -26 -7 -32 -14 -8 -9 -7 -10 4 -4 9 5 12 4 7
-1 -5 -5 -13 -10 -18 -10 -5 -1 -11 -3 -14 -4 -3 -1 -11 -3 -17 -4 -7 -1 -12
-7 -11 -14 2 -6 -4 -9 -12 -6 -8 4 -15 1 -15 -5 0 -6 -9 -11 -19 -11 -10 0
-21 -7 -25 -15 -3 -8 -9 -14 -13 -14 -14 3 -43 -13 -38 -20 2 -4 -1 -8 -8 -8
-7 0 -32 -12 -57 -28 -25 -16 -47 -29 -50 -29 -3 -1 -4 -4 -3 -8 2 -4 -3 -5
-10 -2 -7 2 -21 -3 -32 -12 -11 -8 -14 -12 -6 -8 9 4 12 3 7 -4 -4 -6 -14 -8
-23 -5 -12 5 -14 3 -8 -7 6 -10 4 -12 -9 -7 -10 4 -24 -1 -36 -13 -11 -11 -26
-20 -34 -20 -8 0 -21 -8 -28 -17 -7 -10 -19 -18 -25 -19 -30 -2 -34 -5 -28
-14 3 -5 -3 -10 -15 -10 -12 0 -18 -4 -15 -10 3 -6 -1 -7 -9 -4 -11 4 -16 0
-16 -11 0 -11 -5 -15 -15 -11 -8 3 -15 1 -15 -4 0 -6 -3 -9 -7 -8 -15 3 -43
-14 -37 -23 3 -5 -3 -6 -12 -2 -12 4 -15 3 -10 -5 4 -8 2 -10 -7 -6 -8 3 -17
-2 -21 -11 -3 -9 -10 -13 -16 -10 -5 3 -10 1 -10 -5 0 -6 -4 -8 -10 -5 -5 3
-10 2 -10 -4 0 -5 -16 -15 -35 -21 -19 -6 -38 -16 -41 -22 -5 -7 -2 -8 6 -3 9
5 11 4 6 -4 -4 -6 -11 -9 -15 -6 -5 2 -28 -9 -51 -26 -23 -17 -39 -25 -35 -19
6 9 2 9 -14 0 -12 -6 -18 -16 -15 -22 5 -7 1 -9 -9 -5 -10 3 -17 2 -17 -4 0
-6 -4 -8 -9 -5 -5 3 -12 -1 -15 -10 -3 -8 -10 -12 -16 -9 -5 3 -10 1 -10 -6 0
-7 -3 -9 -7 -6 -3 4 -12 -1 -20 -11 -10 -11 -12 -12 -8 -2 4 10 2 9 -8 -2 -8
-10 -17 -15 -20 -11 -4 3 -7 1 -7 -5 0 -7 -4 -11 -9 -9 -5 1 -17 -7 -26 -18
-9 -11 -13 -14 -9 -6 5 10 -2 9 -24 -4 -17 -10 -28 -23 -25 -28 3 -6 1 -7 -5
-3 -6 4 -20 -2 -30 -12 -10 -10 -24 -16 -32 -14 -8 3 -10 0 -5 -8 5 -9 4 -11
-4 -6 -7 5 -20 -1 -31 -14 -10 -12 -21 -21 -24 -21 -19 3 -27 -1 -47 -21 -12
-13 -19 -17 -15 -10 12 21 -4 13 -31 -15 -15 -16 -23 -22 -19 -16 5 9 2 11 -8
7 -9 -3 -13 -11 -10 -16 4 -6 1 -8 -7 -6 -8 3 -32 -9 -54 -26 -21 -17 -36 -24
-31 -16 4 9 2 8 -7 -2 -8 -10 -17 -15 -20 -11 -4 3 -7 1 -7 -5 0 -7 -6 -11
-12 -9 -7 1 -12 -3 -11 -10 2 -7 -4 -10 -12 -7 -8 4 -15 1 -15 -6 0 -6 -4 -8
-10 -5 -5 3 -10 1 -10 -4 0 -6 -6 -10 -12 -8 -7 1 -12 -4 -10 -12 2 -8 -3 -11
-12 -8 -8 3 -22 -1 -33 -9 -10 -9 -11 -12 -3 -8 9 4 12 3 7 -2 -5 -5 -14 -9
-20 -9 -19 -1 -67 -27 -67 -37 0 -5 -4 -6 -10 -3 -6 3 -10 1 -10 -5 0 -6 -8
-13 -17 -17 -10 -3 -27 -13 -37 -22 -13 -10 -17 -11 -12 -3 7 11 4 12 -13 2
-12 -6 -18 -16 -15 -22 4 -7 3 -8 -4 -4 -7 4 -12 2 -12 -4 0 -7 -7 -10 -15 -6
-8 3 -19 -2 -24 -12 -6 -9 -11 -13 -11 -8 0 6 -7 1 -16 -10 -8 -10 -12 -12 -8
-4 6 11 1 10 -21 -4 -58 -37 -65 -43 -58 -50 4 -4 -1 -4 -11 0 -13 5 -17 4
-12 -4 5 -8 1 -10 -10 -5 -12 4 -15 3 -10 -5 4 -8 2 -10 -7 -6 -8 3 -17 -2
-21 -11 -3 -9 -10 -13 -16 -10 -5 3 -10 1 -10 -5 0 -6 -4 -8 -10 -5 -5 3 -10
-1 -10 -9 0 -10 -6 -13 -17 -9 -12 5 -14 3 -8 -7 5 -9 4 -11 -4 -6 -7 5 -20
-1 -31 -14 -10 -12 -20 -20 -22 -19 -10 6 -47 -14 -42 -23 5 -7 2 -8 -5 -4 -7
5 -19 0 -27 -10 -9 -11 -13 -13 -9 -4 4 10 2 9 -8 -2 -8 -10 -17 -15 -20 -11
-4 3 -9 -1 -13 -10 -3 -9 -12 -13 -19 -11 -7 3 -16 0 -21 -7 -5 -8 -3 -10 7
-4 8 5 11 4 6 0 -4 -5 -18 -10 -30 -12 -12 -2 -23 -8 -25 -13 -2 -6 -10 -10
-18 -10 -9 0 -12 -5 -9 -10 4 -6 3 -9 -2 -8 -9 3 -103 -41 -103 -48 0 -3 5 -2
12 2 7 5 8 3 4 -5 -5 -7 -14 -10 -22 -7 -8 3 -14 1 -14 -5 0 -6 -4 -7 -10 -4
-5 3 -10 1 -10 -5 0 -6 -4 -9 -9 -6 -5 3 -12 -1 -15 -10 -4 -9 -9 -14 -13 -11
-3 4 -12 -1 -20 -11 -10 -11 -12 -12 -8 -2 4 10 2 9 -8 -2 -8 -10 -17 -15 -20
-11 -4 3 -7 1 -7 -5 0 -7 -6 -11 -12 -9 -7 1 -12 -3 -11 -10 2 -8 -4 -10 -14
-6 -12 5 -14 3 -8 -7 6 -9 4 -11 -4 -6 -7 5 -19 0 -27 -10 -9 -11 -12 -13 -9
-6 4 8 -9 3 -28 -9 -19 -13 -33 -28 -30 -34 4 -5 3 -7 -1 -3 -10 9 -126 -52
-126 -65 0 -6 -3 -7 -7 -4 -3 4 -12 -1 -20 -11 -8 -9 -11 -11 -7 -3 5 10 3 12
-7 6 -26 -16 -84 -60 -87 -67 -2 -4 -9 -5 -15 -2 -7 2 -21 -3 -32 -12 -11 -8
-14 -12 -6 -8 9 5 12 3 7 -5 -4 -6 -12 -9 -17 -6 -12 8 -51 -20 -41 -30 4 -5
3 -6 -3 -3 -17 9 -57 -11 -49 -24 5 -7 2 -9 -9 -5 -9 3 -27 -3 -41 -14 -14
-11 -26 -17 -26 -12 0 4 -10 -3 -21 -17 -11 -14 -18 -18 -14 -10 4 8 -1 6 -9
-4 -9 -11 -16 -16 -16 -10 0 5 -7 1 -15 -10 -7 -10 -18 -15 -24 -11 -6 3 -11
1 -11 -4 0 -6 -6 -10 -12 -9 -7 2 -12 -3 -10 -10 1 -8 -2 -11 -8 -7 -5 3 -10
1 -10 -5 0 -6 -4 -9 -8 -6 -5 3 -25 -6 -45 -19 -20 -14 -41 -25 -47 -25 -6 0
-9 -4 -6 -8 2 -4 -5 -9 -16 -9 -12 -1 -25 -8 -29 -15 -5 -7 -12 -13 -16 -14
-22 -2 -42 -17 -36 -27 4 -6 1 -7 -6 -3 -7 5 -19 0 -27 -10 -9 -11 -13 -13 -9
-6 11 21 -5 13 -32 -15 -15 -16 -23 -22 -18 -15 6 11 3 12 -14 2 -12 -6 -19
-15 -16 -20 4 -6 -1 -7 -11 -3 -12 4 -15 3 -10 -5 5 -8 2 -10 -8 -6 -9 3 -26
-5 -41 -20 -15 -15 -31 -24 -36 -21 -5 4 -9 -1 -9 -10 0 -9 -4 -13 -10 -10 -9
6 -70 -21 -70 -31 0 -3 5 -2 12 2 7 5 8 3 4 -5 -5 -7 -14 -10 -22 -7 -8 3 -14
1 -14 -4 0 -6 -6 -9 -12 -8 -7 2 -12 -2 -11 -9 2 -7 -4 -10 -12 -7 -8 4 -15 1
-15 -5 0 -6 -9 -11 -20 -11 -11 0 -23 -7 -26 -15 -4 -8 -10 -12 -15 -9 -5 3
-21 -8 -36 -23 -14 -15 -23 -22 -19 -16 5 9 2 11 -8 7 -9 -3 -16 -10 -16 -15
0 -5 -5 -9 -11 -9 -7 0 -18 -8 -26 -17 -9 -11 -11 -12 -7 -3 6 11 2 10 -13 -2
-11 -10 -23 -18 -28 -18 -4 0 -14 -8 -22 -17 -8 -10 -12 -12 -8 -5 7 14 -59
-27 -89 -55 -11 -10 -16 -12 -11 -5 6 11 3 12 -14 3 -11 -7 -21 -17 -21 -23 0
-6 -3 -8 -6 -5 -4 4 -19 -2 -34 -13 -16 -11 -32 -20 -37 -20 -5 0 -19 -9 -31
-20 -12 -12 -22 -17 -22 -13 0 4 -7 -2 -16 -13 -8 -10 -12 -13 -9 -6 6 11 3
11 -13 1 -12 -7 -18 -17 -15 -23 3 -5 2 -7 -3 -4 -15 9 -56 -11 -48 -23 4 -8
3 -9 -4 -5 -7 4 -12 3 -12 -3 0 -6 -7 -8 -15 -5 -8 4 -17 -1 -21 -9 -3 -8 -18
-17 -33 -20 l-27 -6 1 -1808 c1 -994 5 -1818 8 -1831 3 -12 2 -20 -2 -18 -4 3
-8 -8 -9 -25 0 -19 3 -27 10 -23 7 5 8 2 2 -7 -10 -17 -16 -121 -6 -115 4 3 8
-4 8 -15 0 -10 -3 -19 -7 -19 -10 0 -5 -44 6 -52 6 -5 4 -8 -5 -8 -13 0 -13
-1 0 -11 11 -8 12 -12 3 -16 -7 -2 -13 -9 -13 -14 0 -6 6 -7 13 -3 10 6 10 4
0 -7 -15 -16 -17 -33 -3 -24 5 3 10 1 10 -4 0 -6 -4 -11 -10 -11 -5 0 -10 -5
-10 -11 0 -5 4 -8 9 -5 11 7 9 -13 -3 -33 -6 -9 -5 -12 0 -8 5 3 10 -3 10 -13
0 -10 -4 -16 -8 -13 -9 5 -4 -40 6 -56 4 -5 0 -12 -6 -14 -10 -4 -10 -6 0 -6
6 -1 12 -6 12 -12 0 -5 -3 -8 -7 -6 -5 3 -9 -6 -10 -20 -1 -19 1 -22 8 -12 5
8 9 9 9 4 0 -6 -5 -16 -12 -23 -9 -9 -9 -12 0 -12 7 0 12 -5 12 -11 0 -5 -3
-8 -8 -5 -6 4 -9 -125 -2 -131 7 -7 5 -29 -3 -40 -6 -9 -5 -13 3 -13 7 0 10
-7 6 -16 -5 -13 -2 -15 14 -11 11 3 20 0 20 -6 0 -6 3 -7 7 -4 3 4 12 -1 20
-11 10 -11 12 -12 8 -2 -4 9 0 7 9 -4 8 -10 19 -15 25 -12 5 4 13 1 17 -5 5
-8 3 -9 -6 -4 -9 5 -11 4 -6 -3 4 -7 14 -12 22 -12 8 0 14 -5 14 -11 0 -6 7
-8 16 -5 8 3 12 2 9 -4 -3 -6 1 -10 9 -10 9 0 16 -5 16 -11 0 -5 5 -7 10 -4 6
4 20 -4 31 -17 11 -13 18 -16 14 -8 -4 8 1 6 9 -4 9 -11 16 -16 16 -11 0 5 7
0 16 -11 8 -10 13 -12 9 -4 -4 8 1 6 9 -4 9 -11 16 -17 16 -13 0 4 9 -2 20
-13 11 -11 27 -20 35 -20 8 0 15 -5 15 -11 0 -6 7 -9 15 -5 9 3 15 0 15 -10 0
-11 6 -14 16 -10 10 4 13 2 8 -6 -5 -8 -2 -9 9 -5 9 3 19 1 23 -5 5 -7 2 -8
-7 -4 -8 4 -5 0 6 -8 11 -9 25 -14 32 -12 7 3 13 -2 13 -10 0 -8 5 -12 10 -9
6 3 10 1 10 -5 0 -7 7 -9 16 -6 8 3 12 2 9 -4 -3 -6 1 -10 9 -10 9 0 16 -4 16
-8 0 -4 14 -16 31 -26 22 -13 29 -15 24 -5 -4 8 2 5 13 -6 41 -39 52 -46 64
-39 7 5 8 3 3 -6 -6 -10 -4 -12 8 -7 10 4 16 2 14 -6 -1 -7 5 -12 13 -12 8 0
23 -9 33 -20 10 -11 16 -13 12 -5 -5 13 -4 13 7 0 7 -9 32 -25 55 -37 23 -11
40 -22 38 -25 -3 -3 13 -13 35 -23 22 -10 40 -21 40 -25 0 -5 7 -11 16 -14 10
-4 13 -2 8 7 -4 6 4 0 19 -15 14 -16 35 -28 47 -28 11 0 23 -7 27 -16 3 -9 12
-13 21 -9 9 3 13 3 9 -1 -8 -8 22 -33 42 -34 7 0 25 -12 38 -26 13 -15 30 -23
38 -20 9 3 20 -3 27 -14 7 -11 18 -20 25 -20 7 0 13 -5 13 -11 0 -5 5 -7 10
-4 6 3 10 1 10 -5 0 -6 5 -8 10 -5 6 3 13 -1 16 -9 3 -9 10 -13 15 -10 5 3 9
0 9 -6 0 -7 7 -9 16 -6 8 3 12 2 9 -3 -4 -8 25 -24 47 -26 4 0 16 -10 28 -22
11 -13 25 -24 30 -24 6 -1 14 -2 19 -3 5 0 13 -5 18 -10 5 -5 3 -6 -5 -2 -6 4
-12 5 -12 2 0 -3 10 -10 21 -17 17 -9 20 -8 13 3 -4 7 5 0 21 -15 16 -15 34
-26 42 -23 7 3 13 -1 13 -10 0 -11 6 -14 16 -10 10 4 13 2 8 -6 -5 -8 -2 -9 9
-5 10 4 16 2 14 -6 -1 -7 6 -11 17 -9 11 2 15 -1 11 -7 -3 -6 1 -11 9 -11 9 0
16 -5 16 -11 0 -6 7 -9 15 -5 8 3 14 0 12 -7 -1 -7 6 -11 17 -9 12 2 16 -1 10
-9 -5 -9 -2 -10 9 -6 9 3 19 1 23 -5 5 -7 2 -8 -7 -4 -8 4 -5 0 5 -8 11 -9 26
-16 33 -16 7 0 13 -5 13 -11 0 -5 4 -8 10 -4 5 3 19 -4 30 -15 11 -11 26 -18
32 -14 7 4 8 3 4 -4 -4 -7 -1 -12 8 -12 9 0 16 -5 16 -12 0 -6 3 -9 6 -5 3 3
15 -4 26 -15 11 -11 26 -17 34 -14 9 3 12 1 9 -4 -3 -6 1 -10 9 -10 9 0 16 -4
16 -10 0 -5 7 -6 17 -3 10 4 14 2 9 -5 -3 -6 3 -16 15 -22 17 -10 20 -9 13 2
-4 7 5 0 21 -15 16 -15 34 -26 42 -23 7 3 13 0 13 -7 0 -7 11 -17 25 -24 19
-8 24 -8 19 0 -3 7 6 -1 21 -18 14 -16 24 -23 20 -15 -4 8 1 6 9 -4 9 -11 16
-16 16 -10 0 5 5 1 11 -8 6 -11 16 -15 26 -11 11 4 14 3 9 -5 -4 -7 -1 -12 8
-12 9 0 16 -4 16 -9 0 -5 7 -12 16 -15 10 -4 13 -2 9 7 -4 6 2 2 13 -10 11
-13 23 -23 27 -23 4 0 21 -10 38 -22 18 -13 27 -16 22 -7 -4 7 2 5 13 -6 41
-39 52 -46 64 -39 6 4 8 3 5 -3 -4 -6 0 -14 9 -17 10 -4 13 -2 9 7 -4 6 3 1
14 -13 11 -14 21 -22 21 -17 0 4 9 -2 21 -14 11 -11 27 -18 34 -15 8 3 17 0
21 -6 4 -7 3 -8 -4 -4 -7 4 -12 5 -12 3 0 -3 16 -14 36 -26 19 -12 32 -15 29
-9 -4 7 2 2 13 -12 12 -14 24 -21 28 -17 4 4 14 -2 22 -14 8 -11 20 -18 29
-15 8 3 11 1 8 -4 -3 -6 1 -10 9 -10 9 0 16 -4 16 -10 0 -5 7 -6 17 -3 9 4 14
2 10 -3 -3 -6 8 -19 25 -29 22 -13 29 -14 24 -4 -4 8 1 4 10 -8 9 -13 21 -23
27 -23 6 0 19 -8 30 -17 15 -13 18 -14 12 -3 -5 8 4 3 20 -13 15 -15 36 -27
47 -27 10 0 21 -7 24 -15 4 -8 10 -12 15 -9 5 3 9 0 9 -6 0 -6 4 -9 9 -6 5 3
12 -1 15 -10 4 -9 13 -14 21 -10 8 3 14 0 12 -7 -1 -7 4 -11 11 -9 6 1 12 -3
12 -9 0 -5 5 -7 10 -4 6 3 10 1 10 -4 0 -6 7 -11 15 -11 8 0 15 -5 15 -11 0
-5 4 -8 9 -5 5 3 12 -1 15 -10 4 -10 12 -14 23 -10 10 4 14 4 10 0 -10 -10 31
-36 45 -28 7 4 8 3 4 -4 -4 -7 -1 -12 8 -12 9 0 16 -3 16 -8 0 -9 61 -38 73
-34 5 1 6 -2 2 -8 -3 -5 1 -10 9 -10 9 0 16 -5 16 -11 0 -6 7 -8 16 -5 8 3 12
2 9 -4 -7 -11 29 -32 39 -23 3 3 6 1 6 -5 0 -6 10 -16 21 -23 17 -9 20 -8 14
3 -3 7 1 4 10 -7 9 -11 23 -19 32 -17 8 2 12 -1 9 -6 -3 -6 6 -20 21 -32 16
-12 23 -19 16 -15 -7 3 -21 -2 -31 -12 -10 -10 -24 -19 -30 -20 -18 -4 -216
-124 -223 -135 -3 -5 -10 -10 -15 -10 -15 0 -103 -52 -99 -58 2 -4 -2 -7 -10
-7 -11 0 -371 -208 -385 -223 -3 -3 -26 -16 -52 -29 -26 -14 -45 -28 -43 -31
2 -4 -1 -7 -8 -7 -15 0 -339 -191 -348 -205 -3 -5 -9 -9 -13 -9 -16 1 -35 -12
-29 -22 3 -5 1 -7 -4 -4 -6 4 -54 -19 -108 -51 -53 -31 -117 -69 -142 -83 -24
-14 -48 -31 -53 -38 -4 -7 -10 -11 -13 -9 -9 5 -207 -113 -202 -122 3 -4 -1
-7 -9 -6 -16 1 -625 -356 -620 -365 2 -3 -3 -6 -9 -6 -7 0 -44 -19 -82 -42
-88 -53 -82 -49 -197 -117 -54 -31 -98 -60 -98 -64 0 -3 -6 -7 -12 -7 -18 0
-299 -168 -293 -175 3 -2 -1 -5 -8 -5 -15 0 -211 -113 -215 -125 -2 -4 -8 -8
-13 -8 -19 0 -318 -183 -313 -191 3 -5 -3 -6 -12 -2 -13 5 -15 3 -9 -8 8 -12
6 -12 -8 0 -9 7 -18 12 -18 10 -1 -2 -3 -357 -4 -789 -1 -432 -4 -791 -8 -797
-4 -7 -3 -14 2 -18 6 -3 8 -24 4 -48 -3 -23 -5 -46 -5 -52 7 -54 7 -93 0 -107
-5 -11 -5 -18 1 -18 10 0 6 -84 -5 -102 -4 -6 -3 -8 3 -5 11 7 11 -62 -1 -81
-4 -7 -2 -12 5 -12 8 0 7 -5 -2 -17 -10 -11 -10 -14 -1 -9 15 9 16 -6 0 -22
-7 -7 -8 -12 -2 -12 5 0 10 -9 11 -20 1 -11 -2 -20 -8 -20 -5 0 -9 -5 -9 -11
0 -5 6 -7 13 -3 9 6 9 4 -1 -8 -8 -10 -9 -19 -3 -22 9 -6 7 -43 -4 -74 -3 -7
0 -10 5 -7 6 3 10 2 10 -4 0 -5 -4 -13 -10 -16 -5 -3 -10 -11 -10 -16 0 -6 4
-8 9 -5 10 7 9 -20 -2 -30 -3 -4 -2 -15 4 -25 7 -14 6 -19 -3 -19 -10 0 -10
-2 1 -9 11 -7 11 -9 0 -13 -8 -3 -10 -9 -4 -19 14 -21 15 -39 2 -39 -8 0 -7
-4 1 -12 16 -16 15 -31 0 -22 -9 5 -9 2 1 -9 10 -13 10 -17 1 -17 -9 0 -9 -4
1 -17 8 -10 9 -14 2 -10 -13 8 -12 -30 2 -52 5 -9 4 -12 -2 -8 -6 4 -11 -4
-11 -18 1 -14 4 -22 9 -19 5 3 7 -5 5 -18 -3 -13 -5 -23 -6 -23 -7 0 -6 -36 1
-41 5 -3 6 -11 2 -17 -9 -14 -12 -1734 -3 -1745 8 -11 42 -31 73 -43 15 -6 27
-15 27 -21 0 -6 7 -7 16 -4 8 3 13 2 10 -3 -3 -5 1 -12 10 -15 10 -4 13 -2 8
7 -4 6 4 0 18 -15 32 -34 85 -61 101 -52 7 4 9 4 5 -1 -11 -11 99 -78 113 -69
7 4 9 3 6 -3 -4 -6 7 -16 23 -23 17 -7 30 -17 30 -22 0 -6 7 -7 16 -4 10 4 13
2 8 -6 -5 -8 -2 -9 10 -5 10 4 15 3 11 -3 -3 -6 1 -10 9 -10 9 0 16 -5 16 -11
0 -5 5 -7 10 -4 6 3 10 1 10 -5 0 -6 5 -8 10 -5 6 3 13 -1 16 -9 3 -9 10 -13
15 -10 5 3 9 0 9 -6 0 -6 5 -8 10 -5 5 3 10 1 10 -5 0 -7 7 -9 16 -6 8 3 12 2
9 -4 -5 -9 1 -12 21 -9 3 0 14 -9 24 -21 11 -13 24 -19 31 -14 8 5 9 3 4 -6
-6 -10 -4 -12 9 -7 11 5 15 3 10 -5 -5 -8 -2 -9 9 -5 10 4 16 2 14 -6 -1 -7 6
-11 17 -9 11 2 15 -1 11 -7 -3 -6 1 -11 9 -11 9 0 16 -5 16 -11 0 -6 7 -8 16
-5 8 3 12 2 9 -4 -3 -6 1 -10 9 -10 9 0 16 -4 16 -10 0 -5 9 -10 20 -10 11 0
20 -4 20 -10 0 -5 7 -6 17 -3 9 4 14 2 10 -3 -3 -6 3 -16 15 -23 16 -10 19
-10 13 1 -3 7 1 4 10 -7 9 -11 21 -19 26 -18 5 2 9 -2 9 -8 0 -6 6 -9 14 -6 8
3 17 -1 20 -9 3 -8 15 -14 26 -14 12 0 18 -5 15 -10 -5 -9 16 -15 38 -11 5 1
6 -3 2 -9 -3 -5 1 -10 9 -10 9 0 16 -5 16 -11 0 -6 7 -9 15 -5 8 3 14 1 12 -3
-1 -5 3 -10 8 -11 6 -1 19 -9 29 -18 15 -13 18 -14 12 -2 -5 9 -2 8 7 -2 8
-10 30 -25 51 -33 20 -8 36 -19 36 -23 0 -4 11 -12 25 -19 19 -8 24 -8 20 0
-3 7 2 2 11 -10 9 -13 23 -23 30 -23 8 0 14 -4 14 -9 0 -5 7 -12 16 -15 10 -4
13 -2 9 7 -4 6 0 4 8 -5 8 -10 19 -18 24 -18 6 0 16 -7 23 -15 7 -9 15 -13 18
-10 3 2 11 -3 19 -13 10 -11 12 -12 8 -2 -4 9 0 7 9 -4 8 -10 20 -15 27 -10 8
5 10 3 4 -6 -6 -10 -4 -12 8 -7 10 4 16 2 14 -5 -1 -7 6 -12 15 -13 9 0 24 -9
33 -20 9 -11 14 -13 10 -5 -4 8 1 6 9 -4 9 -11 16 -17 16 -13 0 4 10 -2 22
-13 12 -11 28 -18 34 -16 7 3 15 -1 18 -9 3 -8 15 -19 27 -25 17 -10 20 -9 14
2 -3 7 1 4 10 -7 9 -11 23 -19 32 -17 8 2 12 -1 9 -6 -7 -12 22 -25 35 -16 5
3 9 -2 9 -11 0 -9 4 -13 10 -10 5 3 10 1 10 -5 0 -7 7 -10 15 -6 8 3 14 0 12
-7 -1 -7 4 -11 11 -10 6 2 12 -2 12 -8 0 -6 7 -9 15 -5 8 3 15 2 15 -3 0 -5
12 -16 26 -26 18 -12 24 -13 19 -4 -4 8 2 4 12 -7 17 -21 59 -40 76 -36 5 1 6
-2 2 -7 -3 -6 4 -15 16 -21 17 -10 20 -9 14 2 -5 7 4 0 19 -15 15 -17 33 -26
41 -23 9 3 15 -1 15 -10 0 -11 6 -14 16 -10 8 3 13 2 10 -3 -3 -5 1 -12 10
-15 10 -4 13 -2 9 7 -4 6 2 2 13 -11 11 -12 23 -22 27 -22 4 0 21 -10 38 -22
18 -13 28 -16 23 -7 -4 7 0 5 8 -5 9 -11 16 -17 16 -13 0 4 10 -2 22 -13 12
-11 28 -18 35 -16 7 3 13 -1 13 -8 0 -8 7 -17 16 -20 10 -4 13 -2 9 7 -4 6 1
3 9 -7 9 -11 16 -16 16 -11 0 5 7 0 16 -11 8 -10 13 -12 9 -4 -4 8 1 6 9 -4 9
-11 16 -16 16 -11 0 5 7 0 16 -11 8 -10 12 -12 8 -4 -4 8 3 5 15 -7 24 -25 36
-30 26 -10 -4 6 2 2 12 -9 10 -12 28 -25 41 -29 12 -3 22 -11 22 -16 0 -6 4
-7 10 -4 5 3 10 1 10 -5 0 -7 7 -9 16 -6 8 3 12 2 9 -4 -3 -6 1 -10 9 -10 9 0
16 -5 16 -12 0 -6 3 -8 7 -5 3 4 18 -3 31 -15 14 -13 22 -16 18 -8 -4 8 0 6 8
-4 9 -11 16 -16 16 -10 0 5 3 5 8 -1 4 -5 16 -17 26 -25 18 -13 19 -13 12 0
-4 9 -2 8 7 -2 8 -10 17 -15 20 -11 4 3 7 1 7 -6 0 -7 5 -9 10 -6 6 3 10 2 10
-4 0 -6 10 -15 21 -22 17 -9 20 -8 14 3 -4 7 2 2 13 -11 10 -13 24 -21 30 -17
5 3 12 0 15 -7 3 -6 19 -21 37 -31 23 -13 31 -15 26 -5 -4 8 -1 6 6 -3 8 -9
20 -18 27 -20 8 -2 24 -14 38 -26 13 -14 30 -21 39 -18 10 4 13 2 8 -6 -5 -8
-2 -9 10 -5 10 4 15 3 11 -3 -3 -5 12 -17 34 -26 23 -9 41 -21 41 -26 0 -6 7
-7 16 -4 10 4 13 2 8 -6 -5 -8 -2 -9 9 -5 10 4 16 2 14 -6 -1 -7 4 -11 11 -10
6 2 12 -2 12 -9 0 -6 3 -8 7 -5 3 4 12 -1 20 -11 10 -11 12 -12 8 -2 -4 10 -2
9 8 -2 8 -10 17 -15 20 -11 4 3 7 1 7 -6 0 -7 7 -11 15 -8 8 4 17 1 21 -5 5
-7 2 -8 -6 -3 -9 6 -11 4 -6 -4 5 -7 14 -10 22 -7 8 3 14 2 14 -3 0 -5 12 -16
26 -26 18 -12 24 -13 19 -4 -3 8 1 5 9 -5 9 -11 16 -17 16 -13 0 4 10 -2 22
-13 12 -11 28 -18 35 -16 7 3 13 -2 13 -10 0 -11 6 -14 16 -10 10 4 13 2 8 -6
-5 -8 -2 -9 9 -5 10 4 16 2 14 -6 -1 -7 4 -11 11 -10 6 2 12 -2 12 -8 0 -5 4
-8 9 -4 5 3 12 1 16 -5 4 -6 11 -7 17 -4 6 4 8 3 5 -2 -3 -6 3 -16 15 -23 16
-10 19 -10 13 1 -4 7 -1 6 7 -2 20 -23 65 -50 83 -50 9 0 14 -4 11 -9 -7 -10
22 -24 34 -16 5 3 12 0 16 -6 5 -8 3 -9 -6 -4 -9 5 -11 4 -6 -3 4 -7 13 -12
20 -12 7 0 26 -10 42 -22 15 -13 24 -16 20 -8 -5 8 1 5 13 -8 24 -24 36 -29
25 -10 -4 7 5 0 20 -15 15 -17 33 -26 41 -23 9 3 15 -1 15 -10 0 -8 5 -12 10
-9 6 3 10 1 10 -5 0 -7 7 -9 16 -6 8 3 12 2 9 -4 -3 -6 1 -10 9 -10 9 0 16 -4
16 -8 0 -5 18 -18 40 -30 23 -12 38 -16 35 -9 -4 7 3 1 15 -13 12 -14 19 -18
15 -10 -4 10 -2 9 8 -2 8 -10 17 -15 20 -11 4 3 7 1 7 -5 0 -6 14 -19 31 -28
23 -11 29 -12 24 -2 -3 7 1 4 10 -7 9 -11 23 -19 32 -17 8 2 12 -1 8 -7 -3 -6
1 -11 9 -11 9 0 16 -5 16 -11 0 -6 7 -8 16 -5 10 4 13 2 8 -6 -5 -8 -2 -9 10
-5 11 5 15 3 10 -5 -5 -8 -2 -9 9 -5 9 3 19 1 23 -5 5 -7 2 -8 -6 -3 -9 5 -11
4 -6 -4 4 -7 13 -10 19 -8 6 2 20 -6 30 -17 10 -12 16 -14 12 -6 -4 10 -2 9 8
-2 8 -10 17 -15 20 -11 4 3 7 1 7 -6 0 -7 4 -9 10 -6 6 3 10 1 10 -4 0 -6 7
-11 15 -11 8 0 15 -5 15 -11 0 -5 4 -7 10 -4 6 3 10 2 10 -4 0 -6 10 -15 21
-22 17 -9 20 -8 14 3 -3 7 1 4 9 -6 9 -11 16 -17 16 -13 0 4 9 -2 21 -14 11
-11 27 -18 34 -15 8 3 21 -4 29 -16 9 -12 19 -17 27 -13 7 5 10 4 6 -2 -3 -5
12 -20 35 -33 26 -14 38 -18 34 -9 -4 8 2 3 14 -11 12 -14 18 -18 14 -10 -4 8
3 4 16 -8 22 -23 77 -49 92 -44 5 1 7 -4 5 -11 -1 -6 6 -11 15 -11 10 1 15 -3
11 -9 -4 -6 0 -8 11 -4 10 4 15 3 11 -3 -3 -6 1 -10 9 -10 9 0 16 -3 16 -8 0
-4 9 -13 21 -20 17 -11 20 -11 14 0 -3 7 0 5 8 -4 8 -10 17 -15 20 -11 4 3 7
1 7 -6 0 -7 4 -10 9 -7 5 3 11 -1 15 -9 3 -9 12 -12 22 -8 13 5 15 3 9 -7 -6
-10 -4 -12 9 -7 9 4 15 3 12 -1 -7 -12 52 -44 66 -36 7 4 8 3 4 -4 -4 -7 -1
-12 8 -12 9 0 16 -4 16 -10 0 -5 7 -6 17 -3 10 4 14 2 9 -5 -3 -6 3 -16 15
-22 17 -10 20 -9 14 2 -3 7 0 5 8 -4 8 -10 19 -18 26 -18 6 0 11 -4 11 -10 0
-5 6 -10 13 -10 7 0 28 -11 47 -25 19 -14 40 -23 48 -20 7 2 11 1 8 -3 -2 -4
12 -18 31 -31 19 -12 32 -17 28 -9 -5 7 2 3 14 -9 24 -25 35 -30 26 -10 -3 6
2 2 11 -10 9 -13 23 -23 30 -23 8 0 23 -9 35 -21 11 -11 27 -18 35 -15 8 3 13
2 10 -2 -6 -11 51 -45 63 -37 5 3 16 -4 25 -16 8 -12 19 -18 25 -15 5 4 13 1
17 -5 4 -8 3 -9 -4 -5 -7 4 -12 5 -12 1 0 -8 53 -29 69 -26 7 1 10 -2 7 -7 -3
-6 7 -16 24 -24 16 -7 30 -17 30 -21 0 -5 5 -5 10 -2 5 3 10 2 10 -4 0 -6 7
-7 17 -4 11 4 14 3 9 -5 -4 -7 -1 -12 8 -12 9 0 16 -4 16 -9 0 -5 7 -12 16
-15 10 -4 13 -2 8 7 -4 6 3 2 14 -10 12 -12 30 -24 42 -28 11 -3 20 -11 20
-17 0 -5 7 -7 16 -4 8 3 13 2 10 -3 -3 -5 1 -12 10 -15 10 -4 13 -2 8 7 -4 6
4 0 19 -15 27 -29 43 -37 31 -15 -3 6 5 0 20 -16 29 -29 41 -35 31 -14 -4 6 1
3 9 -7 9 -11 16 -17 16 -13 0 4 10 -1 22 -13 12 -11 30 -20 40 -20 11 0 17 -4
14 -9 -3 -4 6 -13 20 -20 20 -9 24 -8 19 1 -3 7 2 3 11 -9 9 -13 21 -23 26
-23 5 0 21 -9 36 -20 15 -11 37 -21 49 -23 12 -2 26 -7 30 -12 5 -4 2 -5 -6 0
-9 5 -12 4 -7 -3 4 -7 13 -12 20 -12 7 0 23 -9 36 -20 27 -23 34 -25 25 -7 -4
6 -1 5 7 -3 18 -21 72 -55 63 -39 -5 7 4 4 18 -7 15 -10 27 -23 27 -27 0 -5 5
-5 10 -2 6 3 10 2 10 -4 0 -6 14 -18 31 -27 17 -8 28 -11 25 -5 -4 7 -1 8 8 5
9 -3 13 -10 10 -15 -3 -5 2 -9 10 -9 9 0 16 -5 16 -11 0 -5 4 -7 10 -4 5 3 10
1 10 -4 0 -6 6 -11 14 -11 7 0 19 -7 26 -15 7 -8 16 -12 21 -9 5 3 9 1 9 -5 0
-6 7 -8 15 -5 10 4 15 0 15 -11 0 -11 5 -15 16 -11 10 4 13 2 8 -6 -5 -8 -2
-9 9 -5 9 3 19 1 23 -5 5 -7 2 -8 -7 -4 -8 4 -5 0 6 -8 11 -9 25 -14 32 -12 7
3 13 -2 13 -10 0 -8 5 -12 10 -9 6 3 10 1 10 -5 0 -7 7 -10 15 -6 9 3 19 -3
25 -15 6 -11 15 -17 21 -14 5 4 9 1 9 -5 0 -6 5 -8 10 -5 6 3 13 0 16 -9 3 -8
12 -17 20 -20 10 -4 13 -1 9 7 -4 6 1 3 9 -7 9 -11 16 -17 16 -13 0 4 9 -2 21
-14 11 -11 27 -18 35 -15 8 3 14 0 14 -7 0 -7 11 -17 25 -24 19 -8 24 -8 19 0
-3 7 4 1 16 -13 12 -14 19 -18 15 -10 -4 10 -2 9 8 -2 8 -10 17 -15 20 -11 4
3 7 2 7 -3 0 -14 58 -46 69 -39 5 3 13 0 17 -6 4 -8 3 -9 -4 -5 -7 4 -12 4
-12 1 0 -3 13 -11 30 -16 16 -6 30 -15 30 -21 0 -5 5 -6 10 -3 6 3 10 1 10 -5
0 -7 7 -9 16 -6 8 3 12 2 9 -4 -3 -6 1 -10 9 -10 9 0 16 -5 16 -11 0 -6 5 -9
12 -7 6 2 22 -7 35 -20 15 -15 30 -21 41 -17 9 3 13 3 9 -1 -8 -9 47 -44 69
-44 8 0 13 -4 10 -9 -3 -4 7 -14 22 -20 17 -8 28 -9 30 -2 2 5 10 7 19 4 11
-4 14 -3 9 6 -6 8 -2 11 10 9 11 -2 18 2 17 9 -2 8 4 10 14 6 11 -4 14 -3 9 5
-4 8 -2 10 8 6 8 -3 24 4 35 15 12 12 22 21 24 20 8 -2 36 14 33 20 -3 4 5 8
16 8 11 1 27 10 35 20 9 11 12 12 8 3 -4 -8 1 -6 10 5 8 11 22 20 30 20 8 0
21 9 30 20 9 11 13 13 9 5 -7 -13 -6 -13 12 0 10 8 25 22 32 30 8 9 11 10 7 2
-5 -10 1 -9 24 2 17 9 31 21 31 26 0 6 8 10 18 10 22 1 54 25 44 34 -4 4 -2 7
3 6 6 -1 13 -1 18 0 4 1 13 3 20 4 6 1 11 7 10 14 -2 7 4 9 14 5 11 -4 14 -3
9 5 -5 8 -2 10 8 6 11 -4 16 0 16 11 0 11 5 15 15 11 8 -3 15 -1 15 4 0 6 3 9
8 8 12 -2 42 14 38 21 -3 4 5 8 17 8 12 1 30 12 40 25 10 13 16 17 12 9 -9
-16 43 16 63 39 12 13 13 13 6 0 -7 -13 -6 -13 12 0 10 8 22 20 26 25 5 6 8 6
8 1 0 -6 7 -1 16 10 8 10 13 12 9 4 -4 -8 3 -4 15 10 12 14 19 19 15 12 -5
-10 1 -9 24 2 17 9 31 22 31 28 0 6 3 8 7 5 3 -4 12 2 20 13 8 12 20 17 30 13
11 -4 14 -3 9 5 -5 8 -2 10 8 6 9 -3 16 -1 16 5 0 6 9 11 19 11 10 0 21 7 25
15 3 8 11 14 18 13 7 -2 12 2 11 9 -2 8 4 10 14 6 12 -5 14 -3 8 7 -5 9 -4 11
3 6 15 -9 73 24 65 38 -4 5 1 7 10 3 10 -3 17 -2 17 3 0 6 4 9 9 7 5 -1 17 7
26 18 9 11 13 13 9 5 -7 -13 -6 -13 12 0 10 8 25 22 32 30 12 13 13 13 6 0
-10 -18 43 14 64 39 8 9 10 10 7 3 -6 -11 -3 -12 14 -2 12 6 19 15 16 20 -4 6
1 7 11 3 13 -5 15 -3 9 7 -5 8 -3 11 6 8 8 -3 32 9 54 26 21 17 36 24 31 16
-4 -9 -2 -8 7 2 8 10 17 15 20 11 4 -3 7 -1 7 6 0 7 5 9 10 6 6 -3 10 -1 10 4
0 6 6 10 13 8 6 -1 11 4 9 11 -1 8 2 11 8 7 6 -4 18 1 26 11 9 11 13 13 9 4
-4 -8 2 -6 12 6 10 11 25 18 32 16 9 -3 11 0 6 7 -4 8 -1 11 8 9 9 -2 23 6 32
17 9 11 13 14 10 7 -6 -11 -3 -11 13 -1 12 7 18 17 16 21 -3 5 -2 8 3 7 20 -3
34 3 54 24 12 12 19 16 14 9 -5 -10 1 -9 24 2 17 9 31 21 31 27 0 6 5 7 10 4
6 -3 10 -1 10 5 0 6 4 9 9 6 5 -3 12 1 15 10 3 8 10 12 16 9 5 -3 10 -2 10 2
0 5 9 14 21 21 12 8 18 9 14 3 -3 -6 10 -2 29 10 20 12 36 23 36 26 0 2 -5 1
-12 -3 -7 -4 -8 -3 -4 4 4 6 14 8 23 5 12 -5 14 -3 8 7 -6 9 -4 11 4 6 7 -5
19 0 27 10 9 11 13 13 9 4 -4 -8 2 -6 12 6 10 11 24 19 31 16 6 -2 15 3 18 12
3 9 13 16 21 16 9 0 22 8 30 18 8 9 11 11 8 4 -6 -11 -3 -11 13 -1 12 7 18 17
15 22 -3 4 3 7 13 5 13 -2 18 2 16 12 -2 8 0 12 4 7 4 -4 16 1 27 10 15 13 19
14 13 3 -4 -8 0 -6 9 5 9 11 18 19 20 18 13 -7 25 -2 20 8 -4 6 0 9 11 7 11
-2 18 2 17 9 -2 8 4 10 14 6 11 -4 14 -3 9 5 -5 8 -2 10 8 6 9 -3 16 -1 16 5
0 6 7 11 16 11 8 0 12 5 9 10 -4 6 -3 10 2 9 20 -3 34 3 54 24 12 12 18 16 14
9 -6 -11 -3 -12 14 -3 11 7 21 16 21 22 0 6 5 7 10 4 6 -3 10 -1 10 5 0 6 5 8
10 5 6 -3 10 -1 10 6 0 7 3 10 6 6 4 -3 15 4 26 16 11 12 17 16 13 10 -11 -22
5 -14 32 14 15 16 22 21 18 14 -5 -9 5 -5 22 7 17 12 36 22 43 22 6 0 8 4 5
10 -3 6 1 7 9 4 10 -4 16 -1 16 10 0 10 5 13 17 9 11 -4 14 -3 9 6 -5 8 -3 11
7 9 9 -2 23 6 32 17 9 11 13 13 9 5 -5 -8 9 -2 31 14 21 16 35 24 30 17 -4 -8
4 -6 19 4 14 10 26 22 26 28 0 6 3 7 7 4 3 -4 12 1 20 11 8 9 11 11 7 3 -5
-10 2 -9 24 4 17 10 29 22 26 27 -3 5 -2 7 3 6 13 -4 85 34 105 55 9 10 18 17
20 16 10 -6 47 14 42 23 -5 7 -2 8 5 4 7 -5 19 0 27 10 9 11 13 13 9 4 -4 -10
-2 -9 8 2 8 10 17 15 20 11 4 -3 7 -1 7 6 0 7 5 9 10 6 6 -3 10 -1 10 4 0 6 6
10 13 8 6 -1 11 3 10 10 -2 8 4 10 14 6 11 -4 14 -3 9 5 -4 8 -2 10 7 6 9 -3
22 4 30 16 9 12 20 19 26 15 6 -3 11 -1 11 4 0 6 6 10 13 8 6 -1 11 3 10 10
-2 7 3 10 11 7 8 -3 23 3 34 14 11 11 23 18 26 15 3 -3 8 1 12 10 3 9 12 13
19 11 7 -3 16 0 21 7 5 8 3 10 -6 4 -9 -5 -11 -4 -6 4 4 6 12 9 17 5 6 -3 17
2 25 12 9 11 13 12 9 4 -4 -8 3 -4 15 10 12 14 19 19 15 11 -9 -16 43 16 63
39 8 8 11 9 7 3 -11 -22 5 -14 32 15 15 15 23 21 18 14 -6 -11 -3 -12 14 -2
13 6 19 16 15 23 -4 7 -4 9 1 5 9 -9 113 46 132 69 8 10 11 12 8 5 -5 -10 1
-9 24 2 17 9 31 19 31 22 0 3 -5 2 -12 -2 -7 -5 -8 -3 -4 5 5 7 14 10 22 7 8
-3 14 -1 14 4 0 6 6 9 13 7 6 -1 11 3 10 10 -2 7 4 10 12 7 8 -4 15 -1 15 5 0
6 9 11 19 11 11 0 23 5 27 12 5 7 3 8 -6 3 -9 -5 -11 -4 -6 4 4 6 12 9 17 6
12 -8 51 20 41 30 -4 5 -1 5 6 1 8 -5 19 -1 28 10 9 11 12 13 8 5 -8 -17 4
-10 53 25 17 13 35 24 39 24 4 0 13 8 20 17 7 10 16 18 21 18 20 0 72 28 67
36 -3 5 2 6 10 3 9 -3 25 5 40 21 14 15 30 24 35 20 6 -3 11 -1 11 4 0 6 6 10
13 8 6 -1 11 3 10 10 -2 8 4 10 14 6 12 -5 14 -3 8 7 -5 9 -4 11 3 6 14 -9 55
18 44 28 -4 4 -2 7 3 6 6 -1 13 -1 18 0 4 1 13 3 20 4 6 1 11 7 10 14 -2 7 4
9 14 5 11 -4 14 -3 9 5 -5 8 -2 10 8 6 9 -3 16 -1 16 5 0 6 5 11 11 11 7 0 18
8 26 18 8 9 11 11 8 4 -6 -11 -3 -12 14 -2 12 6 19 15 16 20 -3 6 0 7 7 5 8
-3 22 2 33 11 11 8 14 12 6 8 -9 -4 -12 -3 -7 4 4 6 14 8 23 5 11 -4 14 -3 9
6 -6 8 -2 11 10 9 11 -2 18 2 17 9 -2 8 4 10 14 6 12 -5 14 -3 8 7 -6 9 -4 11
4 6 7 -5 19 0 27 10 9 11 13 13 9 7 -9 -18 -3 -16 33 10 17 13 28 28 24 32 -4
5 -2 5 4 2 14 -8 96 32 88 44 -3 5 -2 9 3 8 4 -1 11 0 16 1 4 1 13 3 20 4 6 1
11 7 10 14 -2 6 4 9 12 6 8 -4 15 -1 15 5 0 6 6 10 13 8 6 -1 11 4 9 12 -2 8
3 11 12 8 8 -3 26 3 39 14 14 10 28 19 32 19 5 0 14 8 22 17 10 12 12 13 8 3
-4 -8 1 -6 9 4 9 11 16 16 16 11 0 -5 7 0 16 11 8 10 12 13 9 6 -6 -11 -3 -11
13 -1 12 7 19 16 17 19 -2 3 6 7 18 7 12 1 30 12 40 25 10 13 15 16 11 9 -5
-10 2 -8 22 5 16 11 41 26 56 33 15 8 36 22 46 31 9 9 23 15 29 13 6 -2 15 1
19 8 5 8 3 9 -6 4 -8 -5 -11 -4 -6 3 4 6 14 8 23 5 10 -4 14 -2 10 4 -4 6 1
10 11 9 9 0 16 4 15 11 -2 8 4 10 14 6 12 -5 14 -3 8 7 -6 10 -4 12 8 7 10 -3
17 -2 17 3 0 6 6 9 13 7 6 -1 11 3 10 10 -2 7 3 10 10 7 7 -2 21 3 32 12 11 8
13 12 5 8 -9 -4 -12 -3 -7 2 5 5 12 9 15 9 24 2 51 18 46 27 -5 7 -2 8 5 4 7
-5 19 0 27 10 9 11 12 13 9 6 -6 -11 -3 -12 14 -2 12 6 19 16 15 21 -3 6 0 9
7 8 18 -3 50 11 45 20 -3 4 5 8 17 8 11 1 33 11 48 23 16 11 33 20 39 20 5 0
10 3 10 8 0 4 12 16 27 26 14 11 23 13 18 6 -6 -9 -4 -11 6 -4 15 9 19 11 69
51 19 16 30 22 26 15 -5 -8 10 -4 32 9 22 13 38 27 35 32 -3 5 3 7 13 5 11 -2
18 2 17 9 -2 7 3 10 11 7 8 -3 24 4 35 15 12 12 21 18 21 14 0 -4 7 2 16 13 8
10 12 13 9 6 -6 -11 -3 -12 14 -3 11 7 21 14 21 17 0 3 -5 2 -12 -2 -7 -4 -8
-3 -4 4 4 6 13 9 21 5 8 -3 15 0 15 7 0 6 5 8 10 5 6 -3 10 -3 10 2 0 4 12 17
27 27 14 11 23 14 18 7 -6 -10 -3 -11 14 -1 12 6 19 15 16 20 -3 6 0 7 7 5 8
-3 22 2 33 11 11 8 14 12 6 8 -9 -4 -12 -3 -7 4 4 6 14 8 23 5 12 -5 14 -3 8
7 -6 10 -4 12 8 7 10 -3 17 -2 17 4 0 6 5 7 10 4 6 -3 13 1 16 9 3 9 15 16 25
16 10 0 19 4 19 8 0 9 46 35 65 37 6 0 9 7 7 14 -1 7 2 10 8 6 5 -3 10 -2 10
4 0 6 6 8 14 5 7 -3 16 2 20 11 3 9 10 14 15 11 5 -3 11 1 15 9 3 8 15 15 26
15 12 0 18 4 15 10 -4 6 1 7 11 3 12 -4 15 -3 10 5 -5 8 -2 10 8 6 9 -3 16 -1
16 5 0 6 6 11 13 11 7 0 22 7 33 16 10 8 13 12 5 8 -9 -5 -12 -3 -7 5 4 6 11
9 16 6 12 -7 41 6 34 16 -3 5 3 6 12 2 11 -4 15 -2 11 4 -4 6 1 10 11 9 10 0
16 5 14 13 -2 8 3 11 12 8 8 -3 22 1 33 9 10 9 12 12 4 8 -9 -4 -12 -3 -7 4 4
6 14 8 23 5 11 -4 14 -3 9 5 -5 8 -2 10 8 6 9 -3 16 -2 16 4 0 5 15 15 33 22
17 7 40 23 50 34 10 12 16 15 12 9 -4 -9 -1 -11 9 -7 9 3 16 12 16 20 0 8 6
11 17 7 11 -4 14 -3 9 5 -5 8 -2 10 8 6 9 -3 16 -1 16 5 0 6 4 10 9 8 5 -1 17
7 26 18 9 11 13 14 10 7 -6 -11 -3 -12 14 -2 12 6 18 16 15 22 -5 7 -2 9 8 6
18 -7 71 25 61 37 -5 4 -2 5 5 1 13 -8 82 29 82 45 0 4 7 6 15 3 8 -4 17 1 21
10 3 9 15 16 25 16 10 0 19 4 19 10 0 5 11 12 25 16 14 3 22 10 19 16 -3 5 2
8 12 6 11 -2 18 2 17 9 -2 7 3 10 10 7 7 -2 21 3 32 12 11 8 13 12 5 8 -9 -4
-12 -3 -7 2 5 5 13 10 18 10 5 1 13 2 19 3 5 0 19 11 31 24 12 12 19 16 15 10
-5 -9 -2 -11 8 -7 9 3 13 10 10 15 -3 5 2 6 10 3 9 -3 16 -1 16 5 0 6 7 11 16
11 8 0 12 5 9 10 -3 6 -2 10 2 10 13 0 12 1613 -1 1622 -7 5 -7 8 2 8 6 0 12
5 12 11 0 5 -4 8 -8 5 -10 -6 -9 25 2 42 4 6 4 18 -1 25 -11 18 -13 38 -2 31
7 -4 7 25 -1 46 -6 15 -4 36 4 41 5 4 5 15 1 25 -12 28 -14 45 -5 39 4 -2 8 7
8 20 0 14 -6 25 -12 25 -6 0 -5 4 3 9 10 6 10 10 1 16 -9 6 -9 10 1 16 12 7
12 9 0 9 -11 0 -11 3 -1 15 7 8 9 15 4 15 -5 0 -9 11 -9 25 0 14 4 25 9 25 5
0 2 8 -5 17 -10 11 -10 14 -1 9 6 -4 12 -2 12 3 0 6 -5 11 -11 11 -8 0 -8 4 0
14 9 11 9 15 -1 19 -10 4 -10 6 1 6 11 1 11 4 1 16 -10 12 -10 15 1 15 10 0
10 3 1 12 -14 14 -16 32 -3 24 8 -5 8 22 1 32 -8 8 -4 48 5 54 6 5 4 8 -5 8
-13 0 -13 1 0 10 11 7 12 12 3 21 -8 8 -9 18 -3 30 7 12 6 20 -1 25 -8 4 -7 9
2 15 12 7 12 9 0 9 -11 0 -11 3 -1 15 7 9 8 15 2 15 -11 0 -11 18 1 38 5 7 3
12 -3 12 -8 0 -8 6 0 20 6 11 7 20 3 20 -11 0 -10 81 1 98 4 6 3 12 -1 12 -9
0 -8 75 0 115 2 11 2 24 -1 30 -10 16 -8 75 1 75 6 0 6 5 0 13 -5 7 -9 240 -8
559 0 444 -2 545 -12 536 -11 -8 -12 -3 -8 28 3 30 2 35 -6 21 -6 -9 -16 -15
-22 -11 -7 3 -4 -1 6 -9 16 -13 16 -15 2 -21 -9 -3 -13 -2 -10 4 3 6 0 13 -9
16 -8 3 -12 12 -9 20 3 8 0 14 -6 14 -6 0 -11 -4 -11 -8 0 -5 -7 -9 -15 -9 -8
0 -12 4 -10 8 3 4 -2 9 -10 13 -8 3 -12 11 -9 19 3 8 -2 14 -10 14 -8 0 -13
-4 -10 -9 10 -15 -14 -8 -27 9 -10 11 -10 14 -1 9 6 -4 12 -2 12 3 0 14 -6 14
-30 1 -15 -8 -21 -6 -30 10 -9 17 -8 19 7 13 15 -6 16 -5 3 8 -15 17 -43 22
-33 6 3 -5 0 -7 -8 -5 -8 3 -13 13 -12 22 0 11 -4 15 -12 12 -9 -3 -12 0 -9 8
3 7 -2 13 -10 13 -8 0 -12 -5 -9 -10 3 -5 0 -7 -8 -5 -8 3 -13 10 -12 16 2 7
-4 9 -14 5 -12 -5 -14 -3 -8 8 7 11 5 11 -10 -1 -10 -8 -16 -10 -12 -4 4 7 0
15 -9 18 -13 5 -14 9 -4 21 7 9 10 18 6 22 -3 3 -6 1 -6 -6 0 -7 -4 -9 -10 -6
-5 3 -10 1 -10 -5 0 -7 -6 -10 -12 -7 -7 2 -12 11 -10 21 3 19 -14 22 -21 4
-3 -9 -10 -8 -23 6 -11 10 -13 16 -6 12 6 -4 12 -2 12 3 0 14 -6 14 -32 0 -12
-6 -18 -7 -14 -1 3 5 -1 12 -9 16 -8 3 -12 11 -9 19 3 8 -2 14 -10 14 -8 0
-13 -3 -11 -7 2 -4 -2 -7 -11 -7 -9 0 -12 7 -8 19 3 10 1 18 -5 18 -6 0 -11
-4 -11 -8 0 -5 -7 -9 -15 -9 -8 0 -12 4 -10 8 3 4 -2 9 -10 13 -8 3 -12 12 -9
21 4 10 0 15 -11 15 -9 0 -13 -5 -9 -11 4 -7 1 -10 -7 -7 -8 3 -13 12 -11 22
2 9 -4 16 -13 16 -9 0 -14 -4 -11 -8 3 -5 -1 -9 -9 -9 -8 0 -16 6 -19 14 -3 7
0 13 6 13 6 0 8 3 5 6 -4 4 -13 1 -22 -6 -11 -9 -15 -9 -15 -1 0 7 -4 10 -9 7
-5 -3 -11 1 -14 9 -4 10 -1 12 11 8 14 -6 15 -5 2 8 -14 15 -43 22 -35 9 2 -4
-2 -7 -11 -7 -9 0 -12 7 -8 19 3 10 1 18 -5 18 -6 0 -11 -4 -11 -8 0 -5 -7 -9
-15 -9 -8 0 -12 4 -9 9 5 7 -10 12 -28 9 -5 0 -8 4 -8 10 0 5 -4 8 -9 5 -5 -3
-11 1 -14 9 -4 10 -1 12 11 8 14 -6 15 -5 2 8 -15 16 -43 22 -34 7 3 -4 -2 -5
-11 -2 -9 4 -14 13 -11 20 3 8 1 14 -4 14 -6 0 -10 -4 -10 -8 0 -5 -7 -9 -15
-9 -8 0 -12 4 -10 8 3 4 -2 9 -10 13 -8 3 -12 11 -9 19 3 8 -2 14 -10 14 -8 0
-12 -5 -9 -10 3 -5 0 -7 -8 -5 -8 3 -13 12 -11 20 1 8 -4 15 -13 15 -8 0 -12
-4 -9 -9 9 -15 -13 -8 -26 7 -7 9 -19 14 -27 11 -8 -3 -12 -2 -9 3 3 5 -1 12
-10 15 -9 4 -14 13 -10 21 3 9 0 15 -10 15 -8 0 -13 -4 -10 -8 3 -5 -1 -9 -10
-9 -9 0 -12 7 -8 19 6 20 -11 25 -20 6 -5 -10 -7 -10 -12 0 -3 6 -10 10 -15 6
-5 -3 -9 -1 -9 5 0 5 6 12 13 14 9 4 9 6 0 6 -6 1 -14 -3 -18 -9 -8 -13 -44
20 -39 35 3 6 -2 12 -10 12 -8 0 -12 -5 -9 -10 3 -5 0 -7 -8 -5 -8 3 -13 14
-11 24 2 11 -1 15 -5 9 -11 -14 -33 -17 -33 -4 0 5 -4 7 -10 4 -9 -6 -14 7
-11 31 1 6 -5 11 -14 11 -8 0 -12 -3 -10 -7 2 -4 -2 -7 -11 -7 -9 0 -12 7 -9
17 3 10 0 17 -9 17 -9 0 -13 -4 -10 -9 10 -15 -14 -8 -27 9 -10 11 -10 14 -1
9 6 -4 12 -2 12 3 0 13 -13 14 -26 2 -5 -5 -17 -1 -29 11 -19 19 -19 19 0 12
17 -7 18 -6 5 7 -15 17 -43 22 -33 6 3 -5 0 -7 -8 -5 -8 3 -13 12 -11 22 2 9
-2 16 -8 16 -5 0 -10 -4 -10 -8 0 -5 -7 -9 -15 -9 -8 0 -12 4 -10 8 3 4 -2 9
-10 13 -8 3 -12 12 -9 21 4 10 0 15 -11 15 -9 0 -14 -4 -11 -8 3 -5 -1 -9 -10
-9 -9 0 -12 7 -8 19 6 20 -12 25 -19 6 -3 -9 -10 -8 -23 6 -11 10 -13 16 -6
12 6 -4 12 -2 12 3 0 14 -6 14 -32 0 -12 -6 -18 -7 -14 -1 3 5 -1 12 -9 16 -8
3 -12 12 -9 21 3 8 1 15 -5 15 -6 0 -11 -5 -11 -11 0 -6 -6 -9 -12 -6 -7 2
-12 11 -10 19 1 8 -4 15 -13 15 -8 0 -12 -4 -10 -8 3 -4 -3 -6 -12 -5 -20 3
-31 26 -12 26 7 0 10 3 7 6 -4 3 -16 0 -28 -6 -12 -7 -20 -8 -16 -2 3 5 -1 13
-10 16 -9 4 -14 13 -10 21 3 9 0 15 -10 15 -8 0 -13 -4 -10 -8 3 -5 -1 -9 -9
-9 -8 0 -17 7 -19 14 -3 8 -1 11 4 8 6 -3 10 -1 10 4 0 13 -13 14 -25 2 -6 -5
-18 -1 -30 11 -19 19 -19 19 0 12 17 -7 18 -6 5 7 -15 17 -43 22 -33 6 3 -5 0
-7 -8 -5 -8 3 -13 12 -11 20 1 8 -4 15 -13 15 -8 0 -12 -3 -10 -7 2 -4 -2 -7
-10 -7 -8 0 -17 7 -19 14 -3 8 -1 11 4 8 6 -3 10 -1 10 4 0 14 -6 14 -32 0
-12 -6 -18 -7 -14 -1 3 5 -1 12 -9 16 -8 3 -12 12 -9 21 4 10 0 15 -11 15 -9
0 -14 -4 -11 -8 3 -5 -2 -9 -10 -9 -10 0 -14 7 -11 19 3 10 1 18 -4 18 -5 0
-9 -4 -9 -8 0 -5 -7 -9 -15 -9 -8 0 -12 4 -9 9 5 8 -19 13 -41 8 -5 -1 -7 2
-3 6 4 4 0 13 -10 21 -16 12 -16 13 3 6 17 -6 18 -5 5 8 -15 16 -43 22 -34 7
9 -14 -13 -9 -26 7 -10 12 -10 15 0 15 8 0 10 3 7 6 -4 4 -13 1 -22 -6 -11 -9
-15 -9 -15 -1 0 7 -4 10 -9 7 -11 -7 -23 22 -15 35 3 5 0 9 -5 9 -6 0 -11 -5
-11 -11 0 -6 -6 -9 -12 -6 -7 2 -12 11 -10 21 3 19 -14 22 -21 4 -4 -10 -7
-10 -15 0 -5 7 -18 14 -30 15 -11 0 -19 4 -16 8 2 4 -3 9 -11 13 -8 3 -12 12
-9 21 3 8 1 15 -5 15 -6 0 -11 -5 -11 -11 0 -6 -6 -9 -12 -6 -7 2 -12 11 -10
19 1 8 -4 15 -13 15 -8 0 -12 -3 -10 -7 2 -4 -2 -7 -10 -7 -8 0 -12 4 -10 8 3
4 -2 9 -10 13 -8 3 -12 12 -9 21 4 10 0 15 -11 15 -9 0 -13 -5 -9 -11 4 -7 1
-10 -7 -7 -8 3 -13 12 -11 22 2 9 -4 16 -13 16 -9 0 -14 -4 -11 -8 3 -5 -1 -9
-9 -9 -8 0 -16 6 -19 14 -3 7 0 13 6 13 6 0 8 3 5 6 -4 4 -13 1 -22 -6 -11 -9
-15 -9 -15 -1 0 7 -4 10 -9 7 -5 -3 -11 1 -14 9 -4 10 -1 12 11 8 14 -6 15 -5
2 8 -15 17 -43 22 -33 6 3 -5 0 -7 -8 -5 -8 3 -13 12 -11 20 1 8 -4 15 -13 15
-8 0 -12 -3 -10 -7 2 -4 -2 -7 -10 -7 -8 0 -12 4 -9 9 5 7 0 9 -34 12 -17 2
-31 26 -25 43 3 7 0 13 -6 13 -6 0 -11 -5 -11 -11 0 -6 -6 -9 -12 -6 -7 2 -12
11 -10 21 2 9 -2 16 -8 16 -6 0 -9 -4 -5 -9 3 -6 -3 -9 -14 -8 -11 0 -18 4
-15 8 2 4 -3 9 -11 13 -8 3 -12 12 -9 21 3 8 1 15 -5 15 -6 0 -11 -5 -11 -11
0 -6 -6 -9 -12 -6 -7 2 -12 11 -10 20 3 15 -13 18 -34 4 -7 -4 -14 0 -17 7 -3
8 -1 17 6 20 9 3 9 5 0 5 -6 1 -14 -3 -18 -9 -8 -14 -44 20 -38 36 3 8 0 14
-6 14 -6 0 -11 -5 -11 -11 0 -6 -6 -9 -12 -6 -7 2 -12 11 -10 19 1 8 -4 15
-13 15 -8 0 -12 -3 -10 -7 2 -4 -2 -7 -10 -7 -8 0 -13 3 -10 5 3 3 -3 11 -13
19 -16 12 -16 13 3 6 17 -6 18 -5 5 8 -15 17 -43 22 -33 6 3 -5 0 -7 -8 -5 -8
3 -13 12 -11 20 1 8 -4 15 -13 15 -8 0 -12 -3 -10 -7 2 -4 -3 -7 -11 -7 -8 0
-13 6 -10 13 7 18 -5 26 -21 13 -10 -9 -13 -8 -13 0 0 7 -5 9 -10 6 -9 -6 -14
7 -11 31 1 6 -5 11 -14 11 -8 0 -12 -4 -9 -9 3 -4 -2 -5 -11 -2 -9 4 -14 13
-11 21 4 10 1 13 -12 9 -10 -4 -27 1 -38 10 -10 8 -13 12 -5 8 9 -4 12 -3 8 4
-4 5 -17 8 -30 5 -18 -4 -19 -3 -7 6 8 6 10 11 5 11 -6 0 -16 -5 -23 -10 -6
-6 -10 -7 -7 -4 2 4 -10 14 -28 23 -17 9 -32 23 -32 31 0 8 -8 14 -17 12 -9
-1 -20 3 -24 9 -5 8 -3 9 6 4 9 -5 11 -4 6 4 -5 7 -16 9 -28 5 -17 -5 -20 -3
-15 10 4 10 1 16 -9 16 -8 0 -12 -4 -9 -10 10 -17 -12 -11 -26 7 -10 11 -10
14 -1 9 6 -4 12 -2 12 3 0 14 -17 14 -25 1 -4 -6 -15 -2 -27 9 -11 11 -17 24
-13 30 3 6 -1 11 -10 11 -9 0 -13 -5 -9 -11 4 -7 1 -10 -7 -7 -8 3 -13 12 -11
20 1 8 -4 15 -13 15 -8 0 -12 -4 -10 -8 3 -4 -3 -6 -12 -5 -20 3 -31 26 -12
26 7 0 10 3 7 6 -4 3 -16 0 -28 -6 -15 -8 -20 -8 -16 -1 4 6 2 11 -4 11 -6 0
-8 5 -5 10 4 6 3 10 -2 9 -22 -4 -34 2 -27 14 5 7 0 6 -11 -3 -17 -14 -18 -13
-12 2 3 10 1 20 -5 24 -7 4 -8 3 -4 -4 10 -16 -7 -15 -23 1 -11 10 -13 10 -7
0 4 -7 5 -13 2 -13 -3 0 -10 9 -16 20 -9 17 -8 19 7 13 10 -3 16 -4 13 -2 -44
37 -53 42 -46 29 4 -8 0 -6 -8 4 -9 11 -16 16 -16 12 0 -5 -8 -2 -17 5 -14 12
-16 12 -9 -1 4 -8 0 -6 -8 4 -9 11 -16 16 -16 12 0 -4 -7 0 -16 9 -9 9 -23 14
-31 11 -8 -3 -12 -2 -9 3 7 11 -22 23 -36 14 -7 -3 -8 -1 -4 5 7 11 -6 17 -27
13 -5 -1 -6 3 -3 8 4 5 -14 23 -40 40 -25 17 -42 26 -39 19 4 -7 1 -6 -7 3 -7
8 -20 19 -28 23 -26 12 -57 31 -73 45 -9 7 -22 9 -28 5 -8 -4 -9 -3 -5 4 4 7
-3 14 -19 18 -14 3 -25 11 -25 16 0 6 -7 8 -15 4 -8 -3 -14 -1 -12 3 1 5 -2
10 -8 11 -5 1 -19 9 -29 18 -15 13 -18 14 -12 2 6 -12 5 -12 -6 1 -7 8 -21 20
-32 26 -19 10 -2 22 206 141 15 9 24 20 21 25 -3 6 -1 7 5 3 9 -5 137 64 152
83 3 3 10 7 15 8 33 6 246 115 269 138 38 38 26 41 -28 8 -26 -16 -43 -33 -39
-37 4 -4 0 -4 -10 0 -11 4 -19 0 -23 -10 -3 -9 -15 -16 -25 -16 -10 0 -19 -4
-19 -10 0 -5 -6 -10 -14 -10 -8 0 -31 -9 -50 -21 -20 -12 -36 -19 -36 -16 0 3
27 21 60 40 33 18 58 37 55 40 -3 4 -2 5 2 2 8 -6 91 40 188 104 39 25 89 55
112 65 24 10 40 23 36 29 -3 6 -1 7 5 3 6 -4 93 41 193 98 100 58 175 98 168
89 -12 -15 -12 -16 4 -10 10 4 23 7 29 7 6 0 8 7 4 15 -4 11 17 28 74 61 47
27 77 50 73 56 -3 7 -1 8 6 4 6 -4 46 12 89 37 143 83 157 90 147 80 -5 -6
-45 -31 -87 -55 -43 -25 -75 -47 -73 -50 3 -3 -1 -5 -9 -5 -20 0 -215 -116
-210 -125 3 -4 30 6 61 22 31 17 61 30 68 30 6 0 21 9 33 20 12 11 28 20 37
20 8 0 15 3 15 8 0 4 14 13 32 21 17 8 42 24 56 35 13 12 27 21 30 21 15 1
122 60 122 67 0 4 9 8 20 8 11 0 20 5 20 10 0 6 9 10 20 10 11 0 20 7 20 16 0
8 4 13 9 10 5 -3 11 1 15 9 3 8 12 12 21 9 8 -3 15 -1 15 5 0 6 9 11 20 11 11
0 20 5 20 10 0 6 8 10 18 10 10 0 24 9 32 20 8 11 22 20 32 20 10 0 18 5 18
10 0 6 9 10 20 10 11 0 20 5 20 10 0 6 7 10 16 10 18 0 46 25 37 34 -4 3 6 6
20 6 15 0 27 5 27 10 0 6 8 10 18 10 10 0 24 9 32 20 8 11 22 20 32 20 10 0
18 5 18 10 0 6 9 10 20 10 11 0 20 5 20 10 0 6 9 10 20 10 11 0 20 7 20 15 0
9 6 12 15 9 9 -4 23 3 34 15 10 11 26 21 35 21 9 0 16 5 16 10 0 6 8 10 18 10
10 0 24 9 32 20 8 11 22 20 32 20 10 0 18 5 18 10 0 6 9 10 20 10 11 0 20 5
20 10 0 6 8 10 18 10 10 0 24 9 32 20 8 11 22 20 32 20 10 0 18 5 18 10 0 6 8
10 18 10 10 0 24 9 32 20 8 11 22 20 32 20 10 0 18 5 18 10 0 6 9 10 20 10 11
0 20 5 20 10 0 6 8 10 18 10 10 0 24 9 32 20 8 11 26 20 40 20 14 0 32 9 40
20 8 11 21 20 30 20 9 0 22 9 30 20 8 11 22 20 32 20 10 0 18 5 18 10 0 6 9
10 20 10 11 0 20 7 20 16 0 8 5 12 10 9 6 -3 10 -1 10 4 0 6 7 11 16 11 8 0
22 7 31 15 8 8 19 13 24 10 5 -4 9 -1 9 4 0 6 8 11 18 11 10 0 24 9 32 20 8
11 22 20 32 20 10 0 18 5 18 10 0 6 9 10 20 10 11 0 20 5 20 10 0 6 8 10 18
10 10 0 24 9 32 20 8 11 22 20 32 20 10 0 18 5 18 10 0 6 8 10 18 10 10 0 24
9 32 20 8 11 22 20 32 20 10 0 18 5 18 10 0 6 9 10 20 10 11 0 20 5 20 10 0 6
8 10 18 10 10 0 24 9 32 20 8 11 22 20 32 20 10 0 18 5 18 10 0 6 9 10 20 10
11 0 20 5 20 10 0 6 7 10 16 10 23 0 49 29 36 42 -7 7 -53 -15 -150 -71 -77
-45 -143 -81 -148 -81 -5 0 27 21 71 47 44 25 83 51 87 57 4 6 8 7 8 3 0 -5
13 1 29 12 16 12 31 21 34 21 2 0 31 16 63 35 32 19 63 35 68 35 6 -1 -6 -10
-27 -21 -38 -20 -42 -39 -7 -39 10 0 20 7 24 15 3 8 12 12 21 9 8 -3 15 -1 15
5 0 6 8 11 18 11 10 0 24 9 32 20 8 11 22 20 32 20 10 0 18 5 18 10 0 6 8 10
18 10 10 0 24 9 32 20 8 11 22 20 32 20 10 0 18 5 18 10 0 6 9 10 20 10 11 0
20 5 20 10 0 6 8 10 18 10 10 0 24 9 32 20 8 11 22 20 32 20 10 0 18 7 18 16
0 8 4 13 9 9 5 -3 11 5 13 17 2 13 9 22 16 20 7 -1 20 5 28 13 9 8 20 12 26 9
7 -4 8 -2 4 4 -4 7 -1 12 9 12 11 0 15 5 12 14 -4 10 -1 13 8 10 7 -3 25 2 39
11 14 10 26 14 26 10 0 -3 7 1 16 9 8 9 20 14 25 11 5 -4 9 1 9 10 0 9 5 13
10 10 6 -3 10 -1 10 4 0 6 9 11 19 11 10 0 22 7 25 16 3 8 10 12 16 9 6 -3 13
1 16 9 3 9 10 13 15 10 5 -3 9 -1 9 4 0 8 35 25 50 24 3 0 7 8 7 19 1 11 -2
17 -8 14 -5 -4 -9 -2 -9 4 0 5 6 11 13 14 9 3 9 7 -2 20 -10 13 -10 17 -1 17
9 0 9 4 -1 17 -8 9 -9 14 -3 10 7 -4 12 2 12 18 0 14 -4 25 -8 25 -3 0 -7 7
-7 15 0 8 4 15 7 15 4 0 7 24 7 54 -1 30 -4 53 -7 51 -4 -2 -7 2 -7 10 0 8 4
15 8 15 11 0 7 44 -6 52 -6 5 -5 8 4 8 11 0 11 3 1 15 -7 8 -8 15 -3 15 5 0 9
716 9 1805 0 1513 -2 1805 -13 1810 -9 3 -12 0 -8 -8 4 -6 0 -4 -8 5 -8 10
-17 15 -20 11 -4 -3 -7 -1 -7 6 0 7 -4 10 -9 7 -5 -3 -11 1 -15 9 -3 8 -14 15
-25 15 -11 0 -25 8 -30 18 -6 9 -11 13 -11 9 0 -4 -10 1 -22 13 -12 11 -28 20
-36 20 -8 0 -21 8 -29 18 -10 11 -12 12 -8 2 4 -9 0 -7 -9 4 -8 10 -20 15 -26
11 -6 -4 -9 -1 -8 7 2 7 -4 13 -12 13 -8 0 -20 6 -26 14 -6 8 -16 11 -22 7 -7
-4 -12 -1 -12 8 0 14 -19 21 -43 17 -5 -1 -6 3 -2 9 3 5 -1 10 -9 10 -9 0 -16
5 -16 11 0 5 -4 8 -9 4 -5 -3 -12 -1 -16 5 -4 6 -12 7 -18 4 -7 -4 -9 -4 -5 1
11 11 -29 38 -44 29 -6 -4 -8 -3 -5 3 7 12 -49 46 -63 38 -6 -3 -10 1 -10 10
0 11 -5 15 -16 11 -10 -4 -13 -2 -8 6 5 8 2 9 -9 5 -10 -4 -16 -2 -14 6 1 7
-6 11 -16 9 -9 -2 -20 4 -23 13 -4 8 -15 20 -26 26 -16 9 -19 8 -13 -3 3 -7 0
-5 -8 5 -8 9 -17 17 -21 17 -4 0 -26 13 -49 29 -64 43 -91 56 -82 39 4 -7 -2
-2 -13 11 -11 14 -24 21 -31 17 -7 -5 -10 -2 -9 6 2 7 -3 12 -9 10 -7 -1 -13
3 -13 9 0 6 -7 8 -16 5 -8 -3 -12 -2 -9 4 3 6 -1 10 -9 10 -9 0 -16 4 -16 10
0 5 -7 6 -17 3 -11 -4 -14 -3 -9 5 4 7 1 12 -8 12 -9 0 -16 5 -16 11 0 5 -5 7
-10 4 -5 -3 -10 -1 -10 5 0 7 -7 9 -16 6 -10 -4 -13 -2 -8 6 5 8 2 9 -10 5
-10 -4 -15 -3 -11 3 3 6 -1 10 -9 10 -9 0 -16 5 -16 11 0 6 -7 9 -15 5 -8 -3
-14 -2 -12 2 1 4 -2 8 -8 10 -5 2 -19 11 -29 20 -15 13 -18 14 -12 2 5 -9 2
-8 -7 2 -8 10 -30 25 -51 33 -20 8 -36 20 -36 25 0 6 -7 10 -15 10 -8 0 -15 4
-15 10 0 5 -6 7 -14 4 -7 -3 -16 2 -19 10 -4 9 -13 16 -20 16 -8 0 -20 7 -27
15 -7 9 -19 14 -26 11 -8 -3 -13 0 -11 7 1 7 -4 11 -10 9 -7 -1 -13 2 -13 8 0
5 -7 6 -17 3 -12 -5 -14 -3 -8 7 6 10 4 12 -9 7 -9 -4 -15 -3 -12 1 3 4 -4 14
-16 21 -16 10 -19 10 -13 -1 3 -7 0 -5 -9 6 -9 11 -20 15 -28 10 -7 -4 -10 -4
-6 1 10 10 -21 34 -45 35 -10 0 -16 3 -13 8 2 4 -7 12 -20 19 -18 8 -22 8 -17
0 3 -7 -6 1 -21 16 -15 16 -33 26 -41 23 -8 -3 -21 4 -28 14 -7 11 -23 21 -35
23 -12 2 -25 7 -29 12 -5 4 -1 5 7 0 11 -6 12 -5 4 4 -6 7 -20 13 -32 14 -11
0 -19 4 -16 9 2 4 -5 12 -17 18 -17 10 -20 9 -14 -2 3 -7 0 -5 -9 6 -8 10 -20
15 -26 11 -6 -4 -9 -1 -8 7 2 7 -3 12 -9 10 -7 -1 -13 3 -13 9 0 5 -5 7 -10 4
-6 -3 -13 1 -16 9 -3 9 -10 13 -15 10 -5 -3 -9 0 -9 6 0 6 -4 8 -10 5 -5 -3
-10 -1 -10 5 0 7 -7 10 -15 6 -8 -3 -14 0 -12 7 1 7 -4 11 -10 10 -7 -2 -13 2
-13 8 0 6 -7 9 -15 5 -9 -3 -15 0 -15 8 0 8 -7 17 -16 20 -10 4 -13 2 -9 -7 4
-6 -1 -3 -9 7 -9 11 -16 16 -16 10 0 -5 -5 -1 -11 8 -6 11 -16 15 -27 11 -9
-3 -14 -2 -10 2 9 10 -49 48 -62 40 -5 -3 -12 0 -16 6 -4 8 -3 9 4 5 7 -4 12
-5 12 -2 0 4 -18 13 -40 22 -22 9 -40 21 -40 26 0 6 -7 7 -16 4 -10 -4 -13 -2
-8 6 5 8 2 9 -9 5 -10 -4 -16 -2 -14 6 1 7 -4 11 -10 10 -7 -2 -13 2 -13 8 0
5 -4 7 -10 4 -5 -3 -10 -1 -10 5 0 6 -5 8 -10 5 -6 -3 -13 1 -16 9 -3 9 -10
13 -15 10 -5 -3 -9 0 -9 6 0 7 -7 9 -17 6 -10 -4 -14 -4 -10 0 4 4 -2 14 -14
22 -11 8 -23 11 -26 8 -3 -3 -14 4 -24 15 -10 12 -22 18 -28 15 -5 -4 -15 2
-21 13 -7 13 -16 18 -27 14 -11 -4 -14 -3 -9 5 5 8 0 12 -14 12 -12 0 -19 4
-16 8 5 9 -93 58 -107 54 -5 -1 -6 1 -3 6 2 4 -4 14 -16 21 -16 10 -19 10 -13
-1 3 -7 -1 -4 -9 6 -9 11 -16 17 -16 13 0 -4 -10 1 -22 13 -12 11 -30 20 -40
20 -11 0 -17 4 -14 9 7 11 -43 33 -56 25 -6 -4 -8 -2 -5 3 7 10 -20 28 -35 25
-5 -1 -8 2 -8 6 0 12 -59 44 -69 37 -5 -3 -13 0 -17 6 -5 8 -2 10 7 5 8 -4 5
0 -6 8 -11 9 -25 14 -32 12 -7 -3 -13 2 -13 10 0 11 -6 14 -16 10 -10 -4 -13
-2 -8 6 5 8 2 9 -10 5 -11 -5 -15 -3 -10 5 5 8 2 9 -10 5 -10 -4 -15 -3 -11 3
3 5 -12 17 -34 26 -23 9 -41 21 -41 26 0 6 -8 7 -17 4 -10 -4 -14 -4 -10 0 4
4 -7 16 -24 26 -17 11 -33 17 -36 15 -2 -3 -16 6 -30 19 -15 14 -33 22 -40 19
-8 -2 -11 0 -8 5 3 5 -6 12 -20 16 -14 3 -25 11 -25 16 0 6 -7 8 -15 4 -9 -3
-15 0 -15 10 0 11 -6 14 -16 10 -10 -4 -13 -2 -8 6 5 8 2 9 -9 5 -9 -3 -19 -1
-23 5 -5 7 -2 8 7 4 8 -4 5 0 -5 8 -11 9 -26 16 -33 16 -7 0 -13 4 -13 9 0 5
-7 12 -16 15 -10 4 -13 2 -9 -7 4 -6 0 -4 -9 7 -8 10 -19 15 -25 11 -6 -3 -11
1 -11 11 0 10 -3 14 -7 11 -3 -4 -18 3 -31 15 -14 13 -22 16 -18 8 4 -8 1 -7
-8 4 -8 10 -20 15 -27 10 -8 -5 -10 -3 -4 6 6 10 4 12 -8 7 -10 -4 -16 -2 -14
6 1 7 -4 11 -10 10 -7 -2 -13 2 -13 8 0 5 -5 7 -10 4 -6 -3 -13 1 -16 10 -4 9
-13 14 -21 11 -8 -3 -12 -2 -9 3 3 5 -1 12 -10 15 -10 4 -13 2 -9 -7 4 -6 -2
-1 -13 12 -11 13 -24 21 -31 17 -6 -4 -11 -3 -11 2 0 5 -12 17 -26 27 -18 12
-24 13 -19 4 3 -8 0 -6 -8 3 -8 10 -17 15 -20 11 -4 -3 -7 -1 -7 5 0 11 -38
28 -53 24 -5 -1 -6 2 -2 8 7 11 -35 31 -48 23 -4 -2 -6 1 -5 9 2 8 -4 12 -16
10 -10 -2 -16 1 -13 6 3 4 -10 14 -29 21 -18 7 -34 17 -34 23 0 5 -7 8 -15 4
-8 -3 -14 0 -12 7 1 7 -5 12 -13 12 -8 0 -21 7 -28 15 -12 13 -13 13 -7 0 4
-8 -3 -5 -14 8 -12 14 -25 20 -32 16 -8 -5 -9 -3 -4 6 6 10 4 12 -9 7 -10 -4
-15 -3 -11 3 3 6 -1 10 -9 10 -9 0 -16 5 -16 11 0 5 -4 8 -9 4 -6 -3 -20 5
-32 17 -12 13 -19 16 -15 8 5 -9 2 -8 -7 3 -8 9 -18 17 -22 17 -4 0 -20 9 -36
21 -16 11 -33 17 -39 14 -5 -3 -10 1 -10 10 0 11 -5 15 -16 11 -8 -3 -13 -2
-10 3 3 5 -1 12 -10 15 -10 4 -13 2 -9 -7 4 -6 -1 -3 -10 8 -9 11 -21 19 -26
18 -5 -2 -9 1 -9 7 0 5 -10 14 -21 21 -17 9 -20 8 -14 -3 3 -7 -1 -4 -9 6 -9
11 -16 17 -16 13 0 -4 -9 2 -21 14 -11 11 -27 18 -35 15 -8 -3 -13 -2 -10 2 7
12 -52 44 -66 36 -6 -4 -8 -3 -5 3 4 6 -7 16 -23 23 -17 7 -30 17 -30 22 0 5
-4 6 -10 3 -5 -3 -10 -1 -10 5 0 6 -6 10 -14 8 -8 -2 -22 6 -31 17 -9 11 -14
14 -10 8 4 -9 1 -11 -9 -7 -9 3 -13 10 -10 15 3 5 -2 9 -10 9 -9 0 -16 5 -16
11 0 5 -4 7 -10 4 -5 -3 -10 -1 -10 5 0 7 -7 9 -16 6 -10 -4 -13 -2 -8 6 5 8
2 9 -10 5 -10 -4 -15 -3 -11 3 3 6 -1 10 -9 10 -9 0 -16 4 -16 8 0 5 -18 18
-40 30 -23 12 -38 16 -34 9 4 -7 -3 -2 -15 11 -12 12 -26 23 -31 23 -6 1 -15
2 -21 3 -6 0 -17 10 -25 20 -7 11 -17 16 -21 13 -4 -4 -19 5 -35 20 -15 14
-30 24 -34 21 -3 -4 -14 2 -25 13 -11 11 -25 17 -31 13 -7 -4 -8 -3 -4 4 4 7
1 12 -8 12 -9 0 -16 4 -16 10 0 5 -7 6 -17 3 -10 -4 -14 -2 -10 4 8 12 -20 26
-34 17 -5 -3 -9 2 -9 11 0 11 -5 15 -16 11 -9 -3 -12 -2 -9 5 4 6 -1 9 -11 7
-11 -2 -18 2 -16 10 2 12 -10 16 -37 13 -7 -2 -10 2 -7 8 4 5 -3 15 -15 21
-17 10 -20 9 -14 -2 3 -7 0 -5 -9 6 -8 10 -19 15 -25 12 -5 -4 -17 4 -25 16
-9 12 -16 18 -16 13 0 -5 -7 0 -16 11 -8 10 -12 12 -8 4 4 -8 -3 -5 -15 8 -24
24 -36 29 -26 10 4 -7 0 -5 -8 5 -8 9 -19 17 -26 17 -6 0 -11 5 -11 11 0 5 -5
7 -10 4 -6 -3 -13 0 -16 9 -3 8 -12 17 -20 20 -10 4 -13 1 -9 -7 4 -6 0 -4 -9
7 -9 11 -20 15 -28 10 -7 -4 -10 -4 -6 1 10 11 -29 38 -42 30 -6 -3 -10 1 -10
10 0 9 -4 13 -10 10 -5 -3 -10 -1 -10 5 0 6 -4 8 -10 5 -5 -3 -10 -1 -10 5 0
7 -7 9 -16 6 -8 -3 -12 -2 -9 4 3 6 -1 10 -9 10 -9 0 -16 4 -16 8 0 10 -39 32
-63 36 -9 1 -20 6 -24 11 -4 4 -2 5 5 1 6 -4 12 -5 12 -2 0 9 -62 36 -71 30
-5 -2 -14 4 -21 16 -7 11 -18 20 -25 20 -7 0 -13 5 -13 11 0 6 -6 9 -14 6 -8
-3 -17 1 -20 10 -4 9 -13 13 -22 9 -8 -3 -12 -2 -9 4 3 5 -4 14 -16 20 -17 10
-20 9 -14 -2 4 -7 1 -6 -7 2 -20 24 -104 70 -113 62 -5 -4 -4 -1 0 7 6 11 4
13 -8 8 -10 -4 -16 -2 -14 6 1 7 -5 12 -13 12 -8 0 -19 6 -23 13 -5 7 -12 10
-18 7 -5 -4 -9 -2 -9 4 0 6 -10 15 -21 22 -17 9 -20 8 -13 -3 4 -7 -5 0 -21
15 -16 15 -34 26 -42 23 -7 -3 -13 1 -13 10 0 8 -4 12 -10 9 -5 -3 -10 -1 -10
5 0 7 -7 9 -16 6 -10 -4 -13 -2 -8 6 5 8 2 9 -9 5 -9 -3 -19 -1 -23 5 -5 7 -2
8 6 3 9 -5 11 -4 6 3 -4 7 -14 12 -23 12 -9 0 -22 8 -30 18 -10 11 -12 12 -8
2 4 -10 2 -9 -8 2 -8 10 -17 15 -20 11 -4 -3 -7 -1 -7 6 0 7 -7 11 -15 8 -8
-4 -17 -1 -21 5 -5 7 -2 8 7 4 8 -4 5 0 -5 8 -11 9 -28 16 -39 16 -10 0 -16 4
-13 9 7 11 -43 33 -57 25 -7 -4 -9 -4 -5 1 10 10 -29 38 -41 30 -5 -3 -13 0
-17 6 -4 8 -3 9 4 5 7 -4 12 -5 12 -2 0 3 -14 13 -31 22 -23 11 -29 12 -23 2
4 -7 -5 0 -21 15 -16 15 -34 26 -42 23 -7 -3 -13 1 -13 10 0 8 -4 12 -10 9 -5
-3 -10 -1 -10 5 0 7 -7 10 -15 6 -9 -3 -19 3 -25 15 -6 11 -15 17 -21 14 -5
-4 -9 -1 -9 5 0 6 -4 9 -8 6 -5 -3 -19 4 -31 15 -12 11 -25 17 -30 14 -5 -3
-16 4 -24 15 -7 11 -17 17 -20 13 -4 -3 -7 -1 -7 6 0 7 -5 9 -10 6 -6 -3 -13
1 -16 10 -4 9 -13 14 -21 11 -9 -4 -11 -2 -7 6 5 8 2 9 -10 5 -11 -5 -15 -3
-10 5 5 8 2 9 -9 5 -10 -4 -16 -2 -14 6 1 7 -6 11 -17 9 -11 -2 -15 1 -11 7 3
6 1 12 -4 12 -6 1 -15 3 -21 4 -5 1 -15 3 -21 4 -5 0 -7 6 -4 11 3 6 -1 11 -9
11 -30 3 -34 4 -43 13 -5 5 -2 6 6 1 9 -5 12 -4 7 3 -4 7 -13 12 -20 12 -7 0
-23 9 -36 20 -27 23 -34 25 -25 8 4 -7 0 -5 -9 6 -8 10 -19 15 -24 12 -5 -3
-20 6 -33 20 -28 31 -86 64 -73 42 4 -7 -5 -1 -21 15 -15 15 -36 27 -47 27
-11 0 -17 4 -14 9 3 5 -1 12 -10 15 -10 4 -13 2 -8 -7 5 -9 4 -9 -7 1 -16 15
-33 16 -23 0z m56 -4494 c23 -12 29 -12 23 -2 -4 8 -1 7 7 -2 7 -8 22 -22 32
-30 18 -13 19 -13 11 0 -4 8 3 3 18 -12 27 -29 43 -37 32 -15 -4 6 1 3 10 -8
9 -11 21 -19 26 -17 5 1 9 -3 9 -9 0 -5 5 -7 10 -4 6 4 20 -4 31 -17 11 -13
18 -16 14 -8 -4 8 1 6 9 -4 9 -11 16 -16 16 -11 0 5 6 0 14 -11 8 -10 18 -16
22 -12 4 4 13 0 21 -10 9 -11 12 -12 7 -2 -3 8 5 3 20 -12 28 -30 42 -36 30
-15 -4 6 4 0 19 -15 27 -29 43 -37 32 -15 -4 6 1 3 9 -7 9 -11 16 -16 16 -11
0 5 6 1 13 -10 9 -11 19 -15 27 -10 9 5 11 4 6 -3 -4 -7 -1 -12 8 -12 9 0 16
-4 16 -10 0 -5 7 -6 17 -3 10 4 14 2 10 -4 -8 -12 20 -26 34 -17 5 3 9 -2 9
-11 0 -11 5 -15 16 -11 10 4 13 2 8 -6 -5 -8 -2 -9 9 -5 10 4 16 2 14 -6 -1
-7 4 -11 11 -9 6 1 12 -3 12 -9 0 -5 4 -8 9 -4 5 3 12 1 16 -5 4 -6 11 -7 17
-4 6 4 8 3 5 -2 -3 -6 3 -16 15 -23 16 -10 19 -10 13 1 -3 7 1 4 9 -6 9 -11
16 -16 16 -11 0 5 7 0 15 -11 8 -10 15 -15 15 -10 0 6 7 1 16 -10 8 -10 13
-12 9 -4 -4 9 -1 8 8 -3 8 -10 24 -19 35 -20 11 0 18 -5 16 -9 -3 -4 2 -8 10
-8 9 0 16 -4 16 -10 0 -5 7 -7 15 -4 10 4 15 0 15 -11 0 -11 5 -15 16 -11 10
4 13 2 8 -6 -5 -8 -2 -9 10 -5 9 4 15 3 12 -2 -3 -5 1 -12 10 -15 10 -4 13 -2
8 7 -4 6 3 2 15 -10 20 -21 34 -27 54 -24 5 1 6 -3 2 -9 -7 -11 35 -31 48 -23
4 2 6 -1 5 -9 -2 -8 4 -12 16 -10 10 2 16 -1 13 -6 -3 -4 10 -14 29 -21 18 -7
34 -17 34 -23 0 -5 7 -7 16 -4 8 3 13 2 10 -2 -7 -11 52 -45 64 -37 6 3 10 -1
10 -9 0 -9 7 -17 15 -17 29 -3 33 -4 42 -13 5 -5 2 -6 -6 -1 -9 5 -12 4 -8 -2
4 -6 19 -14 34 -18 15 -3 33 -14 41 -23 9 -12 12 -13 7 -2 -4 10 -2 9 8 -2 8
-10 18 -18 22 -18 4 0 20 -9 36 -21 16 -11 33 -17 39 -14 5 3 10 -1 10 -10 0
-11 5 -15 16 -11 8 3 13 2 10 -3 -3 -5 1 -12 10 -15 10 -4 13 -2 9 7 -4 6 2 1
13 -12 11 -13 24 -21 31 -17 6 4 11 1 11 -7 0 -8 7 -18 16 -21 10 -4 13 -2 9
7 -4 6 0 4 9 -7 8 -10 19 -15 25 -12 5 4 13 1 17 -5 5 -8 3 -9 -6 -4 -9 5 -11
4 -6 -3 4 -7 14 -12 22 -12 8 0 23 -9 35 -21 11 -11 27 -18 35 -15 10 4 12 2
8 -6 -5 -8 -2 -9 9 -5 9 3 19 1 23 -5 5 -7 2 -8 -6 -3 -9 5 -11 4 -6 -3 4 -7
13 -12 21 -12 7 0 21 -7 29 -16 9 -8 20 -12 26 -9 6 3 13 -1 16 -10 4 -9 13
-14 21 -11 8 3 12 2 9 -3 -7 -11 23 -25 44 -22 8 2 12 0 8 -5 -11 -10 30 -37
44 -28 7 5 8 3 3 -6 -6 -10 -4 -12 9 -7 10 4 15 3 11 -3 -3 -6 1 -10 9 -10 9
0 16 -3 16 -8 0 -4 9 -13 21 -20 17 -11 20 -11 14 0 -3 7 1 4 9 -6 9 -11 16
-17 16 -13 0 4 9 -2 21 -14 11 -11 27 -18 35 -15 10 4 12 2 8 -6 -5 -8 -2 -9
9 -5 10 4 22 -1 31 -15 8 -11 19 -17 24 -14 5 3 15 -1 22 -10 21 -24 75 -60
66 -43 -4 7 -1 6 7 -3 8 -10 17 -15 20 -11 4 3 7 1 7 -5 0 -7 7 -12 15 -12 8
0 15 -5 15 -11 0 -5 5 -7 10 -4 6 3 10 1 10 -5 0 -6 5 -8 10 -5 6 3 13 -1 16
-9 3 -9 10 -13 15 -10 5 3 9 0 9 -6 0 -7 7 -10 15 -7 8 4 17 1 21 -5 5 -7 2
-8 -6 -3 -9 5 -11 4 -6 -3 4 -7 16 -12 27 -12 10 0 19 -5 19 -11 0 -6 7 -9 15
-6 8 4 17 1 21 -5 4 -7 3 -8 -4 -4 -7 4 -12 5 -12 2 0 -3 10 -10 21 -17 17 -9
20 -8 14 3 -3 7 -1 6 7 -3 16 -20 78 -52 78 -42 1 5 10 -3 21 -16 11 -13 22
-21 26 -17 4 3 22 -8 41 -26 19 -18 32 -26 28 -18 -4 8 -1 7 8 -4 8 -10 20
-15 27 -10 8 5 10 3 4 -6 -6 -10 -4 -12 9 -7 11 5 15 3 10 -5 -5 -8 -2 -9 9
-5 9 3 16 3 14 -1 -1 -4 1 -8 6 -9 4 -2 16 -12 28 -24 11 -11 27 -18 35 -15 9
3 12 1 9 -4 -5 -9 15 -15 37 -11 5 0 7 -5 5 -12 -1 -7 6 -11 17 -9 11 2 15 -1
11 -7 -3 -6 1 -11 9 -11 9 0 16 -5 16 -11 0 -6 7 -9 15 -5 8 3 18 0 22 -7 5
-7 17 -19 27 -27 18 -13 19 -13 12 0 -4 9 -2 8 7 -2 8 -10 17 -15 20 -11 4 3
7 1 7 -5 0 -6 10 -16 21 -23 17 -9 20 -8 14 3 -4 7 3 2 14 -12 11 -14 21 -21
21 -16 0 5 9 1 19 -8 11 -10 24 -15 30 -12 5 4 13 1 17 -5 5 -8 2 -10 -7 -5
-8 4 -5 0 6 -8 11 -9 25 -14 32 -12 7 3 12 0 10 -7 -1 -7 6 -11 17 -9 12 2 16
-1 11 -9 -5 -7 -3 -10 6 -7 7 2 22 -5 32 -16 10 -12 16 -14 12 -6 -4 8 1 6 9
-4 9 -11 16 -16 16 -11 0 5 7 0 16 -11 8 -10 13 -12 9 -4 -4 10 -2 9 8 -2 8
-10 17 -15 20 -11 4 3 7 1 7 -6 0 -8 7 -11 15 -7 9 3 15 0 15 -8 0 -8 7 -17
16 -20 10 -4 13 -2 9 7 -4 6 1 3 10 -8 9 -11 21 -19 26 -18 5 2 9 -1 9 -7 0
-5 7 -7 15 -3 9 3 15 2 13 -3 -2 -5 1 -10 6 -11 5 -1 12 -7 16 -14 5 -8 -8
-20 -39 -36 -25 -14 -120 -69 -211 -123 -91 -53 -216 -126 -277 -162 -62 -36
-109 -69 -105 -73 4 -5 2 -5 -4 -2 -7 4 -28 -4 -48 -18 -20 -14 -39 -25 -42
-25 -11 0 -144 -83 -144 -89 0 -4 -6 -8 -12 -8 -16 0 -209 -110 -223 -126 -6
-7 -16 -13 -24 -15 -14 -3 -581 -331 -591 -341 -3 -4 -27 -17 -53 -31 -27 -14
-56 -32 -66 -40 -9 -8 -21 -16 -27 -17 -11 -2 -186 -103 -194 -112 -3 -3 -21
-14 -40 -23 -19 -10 -42 -22 -50 -28 -8 -5 -57 -34 -108 -63 -51 -29 -89 -57
-85 -62 5 -4 3 -6 -3 -2 -14 8 -127 -57 -117 -68 4 -4 3 -5 -3 -2 -11 6 -333
-176 -345 -195 -3 -5 -10 -10 -15 -10 -21 -1 -33 -11 -27 -21 3 -5 1 -7 -5 -3
-10 6 -81 -29 -93 -47 -3 -5 -9 -8 -13 -8 -7 2 -48 -21 -206 -114 -58 -34
-150 -88 -205 -120 -55 -32 -103 -62 -106 -67 -3 -6 -10 -10 -15 -9 -19 1
-323 -183 -317 -192 3 -6 1 -7 -5 -4 -12 8 -152 -70 -152 -84 0 -6 -4 -8 -9
-5 -4 3 -41 -15 -80 -39 -40 -25 -76 -45 -80 -45 -4 0 -16 -8 -27 -17 -20 -19
-67 -26 -57 -10 4 6 -1 8 -11 4 -10 -4 -15 -3 -11 3 3 6 -1 10 -9 10 -9 0 -16
4 -16 8 0 5 -18 18 -40 30 -23 12 -38 16 -35 9 4 -7 -1 -3 -9 7 -9 11 -16 16
-16 10 0 -5 -5 -1 -11 9 -6 9 -14 15 -20 12 -5 -4 -9 -2 -9 2 0 5 -9 14 -21
21 -17 11 -20 11 -14 0 3 -7 0 -5 -8 4 -8 10 -17 15 -20 11 -4 -3 -7 -1 -7 5
0 7 -7 12 -15 12 -8 0 -15 5 -15 12 0 6 -3 8 -7 5 -3 -4 -12 1 -20 11 -10 11
-12 12 -8 2 4 -10 2 -9 -8 2 -8 10 -17 15 -20 11 -4 -3 -7 -1 -7 6 0 7 -5 9
-10 6 -6 -3 -13 1 -16 9 -3 9 -10 13 -15 10 -5 -3 -9 0 -9 6 0 6 -5 8 -10 5
-6 -3 -13 1 -16 9 -3 9 -10 13 -15 10 -5 -3 -9 0 -9 6 0 6 -4 9 -9 6 -5 -3
-11 1 -15 9 -3 8 -15 15 -26 15 -11 0 -20 5 -20 11 0 5 -4 7 -10 4 -5 -3 -10
-2 -10 4 0 6 -10 15 -21 22 -17 9 -20 8 -14 -3 4 -7 -2 -3 -14 10 -12 12 -26
20 -31 17 -4 -3 -11 2 -14 11 -4 9 -9 14 -13 11 -3 -4 -12 1 -20 11 -10 11
-12 12 -8 2 4 -9 0 -7 -9 4 -8 10 -19 15 -25 12 -5 -4 -13 -1 -17 5 -5 8 -3 9
6 4 9 -5 11 -4 6 3 -4 7 -16 12 -27 12 -10 0 -19 4 -19 10 0 5 -7 7 -15 3 -10
-3 -15 0 -13 8 2 8 -3 13 -9 12 -7 -2 -13 2 -13 8 0 6 -7 9 -15 6 -8 -4 -17
-1 -21 5 -4 7 -3 8 4 4 7 -4 12 -5 12 -2 0 3 -10 10 -21 17 -15 7 -19 8 -15 0
5 -7 1 -9 -8 -5 -9 3 -13 10 -10 15 3 5 -2 9 -10 9 -9 0 -16 5 -16 11 0 5 -4
7 -10 4 -5 -3 -10 -1 -10 4 0 6 -7 11 -15 11 -8 0 -15 5 -15 11 0 5 -4 7 -10
4 -5 -3 -10 -2 -10 4 0 6 -7 7 -17 4 -12 -5 -14 -3 -8 7 6 10 4 12 -8 7 -10
-4 -16 -2 -14 6 1 7 -5 12 -14 12 -9 0 -24 8 -33 18 -16 16 -30 21 -48 18 -5
0 -7 5 -5 12 1 6 -4 11 -10 10 -7 -2 -13 2 -13 8 0 6 -7 8 -16 5 -8 -3 -12 -2
-9 4 3 6 -1 11 -9 11 -30 3 -34 4 -43 13 -5 5 -2 6 6 1 9 -5 12 -4 7 3 -4 7
-12 12 -18 12 -6 0 -20 8 -31 18 -15 12 -19 13 -13 2 4 -8 1 -7 -8 4 -8 10
-20 15 -27 10 -8 -4 -10 -3 -5 4 4 7 1 12 -8 12 -9 0 -16 4 -16 10 0 5 -8 7
-17 3 -10 -3 -15 -2 -11 2 11 11 -29 38 -44 29 -7 -5 -8 -3 -3 6 6 10 4 12 -8
7 -10 -4 -16 -2 -14 6 1 7 -6 11 -17 9 -11 -2 -15 1 -11 7 3 6 1 12 -4 12 -6
1 -15 3 -21 4 -5 1 -15 3 -21 4 -5 0 -7 6 -4 11 3 6 -1 11 -9 11 -30 3 -34 4
-43 13 -5 5 -3 6 5 2 6 -4 12 -5 12 -1 0 6 -46 25 -69 29 -8 2 -19 10 -26 20
-7 9 -17 16 -21 15 -16 -4 -44 13 -38 22 3 5 -2 9 -10 9 -8 0 -22 7 -30 16 -9
8 -20 12 -26 9 -6 -3 -13 1 -16 9 -7 18 -63 48 -75 40 -5 -3 -9 2 -9 11 0 9
-4 13 -10 10 -5 -3 -10 -1 -10 5 0 7 -7 9 -17 6 -10 -4 -14 -4 -10 0 9 9 -30
37 -42 29 -5 -3 -16 4 -24 15 -7 11 -23 21 -35 23 -12 2 -25 7 -29 12 -5 4 -1
5 7 1 8 -4 6 0 -5 8 -11 9 -25 14 -32 12 -7 -3 -13 2 -13 10 0 8 -4 12 -10 9
-5 -3 -10 -1 -10 5 0 7 -7 9 -16 6 -10 -4 -13 -2 -8 6 5 8 2 9 -9 5 -10 -4
-16 -2 -14 5 1 7 -7 14 -18 16 -11 2 -26 12 -33 21 -10 12 -12 12 -7 1 4 -9 0
-7 -9 4 -8 10 -19 15 -25 12 -5 -4 -13 -1 -18 6 -13 21 -72 59 -93 61 -10 1
-16 5 -13 11 4 5 -1 7 -10 3 -10 -4 -16 -2 -14 6 1 7 -5 12 -13 12 -8 0 -19 6
-23 12 -4 7 -17 18 -29 24 -16 9 -19 8 -12 -3 4 -7 -5 0 -21 15 -16 15 -35 25
-42 23 -9 -4 -11 -1 -7 6 5 8 2 9 -10 5 -10 -4 -15 -3 -11 3 6 10 -9 19 -39
24 -8 1 -19 6 -23 11 -4 4 -2 5 6 0 9 -5 12 -4 8 2 -4 6 -27 18 -52 27 -25 10
-45 22 -45 28 0 6 -7 8 -15 4 -8 -3 -14 0 -12 7 1 7 -5 12 -13 12 -8 0 -19 6
-23 13 -5 7 -12 10 -17 7 -4 -3 -11 2 -14 11 -4 9 -13 14 -22 10 -10 -4 -13
-2 -8 6 5 8 2 9 -9 5 -10 -4 -16 -2 -14 6 1 7 -6 11 -17 9 -11 -2 -15 1 -11 7
3 6 -1 11 -10 11 -9 0 -23 7 -32 15 -8 8 -19 12 -25 9 -7 -4 -8 -2 -4 4 4 7 1
12 -8 12 -9 0 -16 3 -16 8 0 10 -51 32 -61 26 -5 -3 -9 2 -9 11 0 9 -4 13 -10
10 -5 -3 -10 -1 -10 5 0 7 -7 10 -15 6 -9 -3 -19 3 -25 15 -6 11 -15 17 -21
14 -5 -4 -9 -2 -9 4 0 6 -14 18 -31 27 -23 11 -29 12 -24 2 3 -7 1 -6 -7 3
-21 25 -66 51 -78 44 -5 -3 -10 1 -10 9 0 14 -19 21 -43 17 -5 -1 -5 4 -1 10
5 9 2 10 -12 5 -10 -4 -15 -4 -11 0 9 9 -30 37 -42 29 -5 -3 -13 0 -17 6 -5 8
-2 10 7 5 8 -4 5 0 -6 8 -11 9 -25 14 -33 11 -7 -2 -10 0 -7 5 6 9 -8 14 -28
11 -5 -1 -6 3 -3 8 7 11 -22 24 -35 15 -5 -3 -9 2 -9 11 0 11 -5 15 -16 11
-10 -4 -13 -2 -8 6 5 8 2 9 -10 5 -9 -4 -15 -3 -12 1 2 4 -9 15 -25 25 -18 10
-27 12 -24 4 4 -6 -2 -2 -13 10 -11 12 -22 19 -26 16 -3 -4 -6 -1 -6 6 0 7 -6
11 -13 8 -8 -3 -14 1 -14 8 0 8 20 24 43 36 24 12 41 26 37 32 -4 6 -1 7 6 3
7 -5 19 0 27 10 9 11 12 12 8 4 -7 -13 -6 -13 12 0 10 8 25 22 32 30 8 8 11 9
7 3 -4 -9 -1 -11 9 -7 9 3 13 10 10 15 -3 5 4 9 16 9 12 0 18 4 15 10 -4 6 1
7 11 3 13 -5 15 -3 9 7 -5 9 -4 11 3 6 7 -4 21 2 33 13 12 11 26 18 30 15 4
-2 13 5 19 16 6 11 16 18 21 14 6 -3 17 2 25 12 9 11 13 13 9 4 -4 -9 -1 -8 8
3 9 10 18 18 21 18 20 -3 27 0 22 8 -3 5 5 12 19 15 13 3 41 17 61 31 20 14
41 25 46 25 5 0 7 4 4 8 -2 4 4 9 15 9 11 1 29 12 40 25 11 13 18 17 14 11 -4
-9 -1 -11 9 -7 9 3 13 10 10 16 -3 5 1 8 9 6 9 -2 23 6 32 17 9 11 14 14 10 8
-11 -22 5 -14 32 15 15 15 23 21 19 14 -6 -10 0 -9 23 2 17 9 31 19 31 22 0 3
-5 2 -12 -2 -7 -4 -8 -3 -4 5 4 6 12 9 17 6 12 -8 51 20 41 29 -4 5 0 7 8 6
29 -4 41 0 34 12 -5 7 -3 8 6 3 8 -5 20 1 32 16 11 13 16 18 12 10 -5 -10 -3
-11 7 -5 8 5 31 20 52 33 20 12 37 27 37 32 0 4 7 6 15 3 8 -4 15 -1 15 5 0 6
6 11 13 11 7 0 19 6 26 13 6 6 17 12 24 12 7 1 11 6 10 13 -2 7 4 9 14 5 11
-4 14 -3 9 5 -5 8 -2 10 8 6 9 -3 16 -1 16 5 0 6 9 11 19 11 11 0 29 12 41 28
12 15 19 21 15 15 -4 -9 -1 -11 9 -7 9 3 14 9 12 13 -3 4 5 8 16 8 12 1 24 6
27 11 3 5 16 12 29 16 12 4 20 12 16 17 -3 5 -2 9 3 8 15 -4 83 31 83 42 0 5
5 7 10 4 6 -3 10 -1 10 5 0 6 4 9 9 6 4 -3 17 2 27 10 10 9 13 12 5 8 -9 -4
-12 -3 -7 4 4 6 14 8 23 5 12 -5 14 -3 8 7 -5 9 -4 11 4 6 7 -5 19 0 29 12 9
10 23 17 31 14 9 -3 11 0 6 7 -5 8 -1 11 11 9 11 -2 18 2 17 9 -2 8 4 10 14 6
12 -5 14 -3 8 7 -6 9 -4 11 5 5 8 -5 18 -1 27 10 7 11 13 15 13 10 0 -5 7 0
16 11 8 10 12 13 9 6 -6 -11 -3 -12 14 -3 11 7 21 14 21 17 0 3 -5 2 -12 -2
-7 -4 -8 -3 -4 4 4 6 14 8 23 5 11 -4 14 -3 9 5 -4 8 -2 10 7 6 9 -3 22 4 30
16 9 12 20 19 26 15 6 -3 11 -1 11 4 0 6 6 10 13 9 6 -2 11 2 10 9 -2 8 4 10
14 6 12 -5 14 -3 8 7 -6 9 -4 11 5 5 8 -5 18 -1 27 10 7 11 13 15 13 10 0 -5
7 0 16 11 8 10 12 13 9 6 -6 -11 -3 -11 13 -1 12 7 19 17 16 21 -3 4 1 5 8 3
8 -3 22 2 33 11 11 8 14 12 6 8 -9 -5 -12 -3 -7 5 4 6 12 9 17 6 12 -8 51 20
41 30 -4 5 -1 5 6 1 8 -5 19 -1 28 10 9 11 13 13 9 7 -10 -21 24 -3 36 18 5
11 18 18 27 17 9 -2 16 2 15 9 -2 8 4 10 14 6 11 -4 14 -3 9 5 -5 8 -1 10 10
5 12 -4 15 -3 10 5 -4 8 -2 10 7 6 9 -3 22 4 30 16 9 12 20 19 26 15 6 -3 11
-1 11 4 0 6 7 11 15 11 9 0 18 7 21 15 4 8 9 13 13 10 4 -2 24 7 44 20 20 14
41 25 47 25 6 0 9 4 6 8 -2 4 5 9 17 9 11 1 25 9 29 18 5 8 13 13 19 10 5 -4
9 -1 9 4 0 6 6 10 13 9 6 -2 11 2 10 9 -2 8 4 10 14 6 11 -4 14 -3 9 5 -5 8
-2 10 8 6 9 -3 16 -1 16 5 0 6 5 11 11 11 7 0 18 8 26 18 9 11 12 12 8 2 -4
-8 3 -4 15 10 12 14 18 19 14 11 -8 -17 4 -10 54 26 17 13 32 21 32 17 0 -4 7
1 16 12 8 10 13 12 9 4 -4 -8 3 -4 15 10 12 14 19 19 15 12 -6 -11 -3 -12 14
-2 12 6 19 16 15 21 -3 6 0 9 7 7 16 -3 79 32 79 44 0 4 7 5 15 2 8 -4 15 -1
15 5 0 6 6 11 14 11 7 0 19 7 26 15 6 8 17 13 23 12 7 -1 11 3 10 10 -2 8 4
10 14 6 11 -4 14 -3 9 5 -4 8 -2 10 7 6 8 -3 17 2 21 11 3 9 10 13 16 10 5 -3
10 -1 10 6 0 7 3 10 6 6 4 -3 15 4 26 16 11 12 16 16 12 8 -8 -16 -2 -13 63
31 23 15 47 28 53 28 6 0 8 4 5 10 -4 6 1 7 11 3 12 -4 15 -3 10 5 -5 8 -2 10
8 6 9 -3 16 -1 16 6 0 6 5 8 10 5 6 -3 10 1 10 10 0 9 4 14 9 11 13 -8 42 4
35 15 -3 5 2 9 12 9 9 0 23 8 31 18 8 9 11 11 7 3 -5 -9 2 -8 19 5 15 10 27
22 27 26 0 4 6 5 14 2 8 -3 17 0 22 7 5 8 3 10 -6 4 -8 -5 -11 -4 -6 3 4 6 14
8 23 5 10 -4 14 -2 10 4 -4 6 1 10 11 9 9 0 16 4 15 11 -2 8 4 10 14 6 12 -5
14 -3 8 7 -6 10 -4 12 8 7 10 -3 17 -2 17 3 0 6 6 9 13 8 6 -2 11 2 10 9 -2 7
3 10 10 7 7 -2 21 3 32 12 11 8 13 12 5 8 -8 -4 -11 -3 -7 1 4 5 15 10 24 11
29 5 63 27 56 37 -3 6 -1 7 5 3 13 -8 55 17 47 27 -3 4 -2 5 1 3 10 -8 64 16
58 25 -3 5 4 9 15 9 12 0 30 9 40 19 11 11 22 17 25 14 3 -4 6 -1 6 6 0 7 4 9
10 6 5 -3 22 7 37 22 14 15 23 22 18 15 -6 -11 -3 -12 14 -2 12 6 24 17 27 25
3 8 12 11 19 9 7 -3 16 0 21 7 5 8 3 10 -6 4 -9 -5 -11 -4 -6 4 4 6 12 9 17 5
6 -3 17 2 25 12 9 11 12 12 8 4 -5 -9 3 -7 21 7 17 12 32 17 33 12 2 -5 17
-16 34 -25z m-4299 -3571 c-3 -7 -6 -13 -8 -13 -2 0 -5 6 -8 13 -3 8 1 14 8
14 7 0 11 -6 8 -14z m0 -320 c-3 -7 -6 -13 -8 -13 -2 0 -5 6 -8 13 -3 8 1 14
8 14 7 0 11 -6 8 -14z m4 -307 c0 -8 -6 -12 -15 -9 -11 5 -11 7 0 14 7 5 13 9
14 9 0 0 1 -6 1 -14z m-7 -122 c0 -8 -5 -12 -10 -9 -6 4 -8 11 -5 16 9 14 15
11 15 -7z m11795 -103 c-23 -21 -253 -147 -249 -137 3 7 18 17 35 23 20 8 28
16 23 24 -4 7 -3 9 4 6 15 -10 43 3 35 16 -3 5 -1 7 5 3 5 -3 41 12 79 34 68
40 86 48 68 31z m-11795 -97 c0 -8 -5 -12 -10 -9 -6 4 -8 11 -5 16 9 14 15 11
15 -7z m10 -108 c0 -11 -19 -15 -25 -6 -3 5 1 10 9 10 9 0 16 -2 16 -4z m-8
-208 c-2 -10 -7 -18 -11 -18 -4 0 -7 8 -7 18 0 10 5 19 12 19 6 0 9 -9 6 -19z
m11068 -2 c0 -5 -98 -68 -115 -75 -5 -2 -66 -36 -135 -76 -149 -86 -170 -97
-170 -91 0 3 18 15 40 26 22 11 40 25 40 31 0 6 3 8 8 5 11 -7 83 40 74 49 -4
4 -2 5 5 2 9 -6 146 63 163 82 5 5 81 49 88 51 1 0 2 -2 2 -4z m-11064 -227
c0 -13 -3 -15 -13 -7 -7 6 -13 14 -13 18 0 3 6 7 13 7 7 0 13 -8 13 -18z
m10604 -42 c-19 -18 -366 -217 -377 -217 -4 0 12 12 37 27 25 15 48 31 51 36
3 5 10 9 15 9 17 1 54 21 54 30 0 4 3 7 8 6 11 -2 62 24 62 33 0 4 11 10 25
13 16 4 23 11 19 18 -4 7 -3 8 5 4 6 -4 24 1 39 11 62 41 88 53 62 30z
m-10606 -52 c-4 -8 -10 -12 -15 -9 -11 6 -2 24 11 24 5 0 7 -7 4 -15z m10206
-179 c0 -3 -272 -162 -432 -253 -5 -2 -8 -2 -8 0 0 3 21 18 48 33 26 15 50 31
53 36 3 6 9 9 13 9 15 -2 75 33 70 41 -3 5 -2 7 3 6 14 -4 53 13 53 23 0 5 6
9 13 9 6 0 50 23 97 50 89 52 90 52 90 46z m-455 -265 c-6 -5 -75 -46 -155
-92 -80 -46 -146 -87 -148 -91 -2 -4 -8 -8 -14 -8 -6 0 -33 -13 -59 -30 -27
-16 -49 -26 -49 -22 1 6 418 251 430 252 2 0 0 -4 -5 -9z m-5951 -3503 c-5 -8
-2 -9 9 -5 10 4 16 2 14 -6 -1 -7 6 -11 17 -9 10 2 15 -1 12 -7 -4 -5 4 -13
16 -16 13 -4 31 -14 40 -22 9 -8 22 -12 29 -7 7 4 10 3 6 -3 -7 -10 20 -28 36
-25 4 1 7 -2 7 -8 0 -5 7 -7 15 -4 10 4 15 0 15 -11 0 -11 5 -15 16 -11 10 4
13 2 8 -6 -5 -8 -2 -9 9 -5 9 3 19 1 23 -5 4 -7 3 -8 -4 -4 -7 4 -12 5 -12 1
0 -6 46 -25 69 -29 8 -2 19 -10 26 -20 7 -9 17 -15 23 -14 5 2 23 -9 40 -24
17 -14 33 -24 36 -21 3 4 6 1 6 -6 0 -8 7 -11 15 -7 9 3 18 -1 21 -9 4 -8 12
-15 20 -15 8 0 14 -5 14 -11 0 -5 5 -7 10 -4 6 3 13 -1 16 -10 4 -9 13 -14 21
-11 9 4 11 2 7 -6 -5 -8 -2 -9 10 -5 11 5 15 3 10 -5 -5 -8 -2 -9 9 -5 10 4
16 2 14 -6 -1 -7 5 -12 13 -12 8 0 21 -8 29 -18 7 -10 20 -16 28 -13 8 3 11 1
8 -4 -3 -6 1 -11 9 -11 30 -3 34 -4 43 -13 5 -5 3 -6 -4 -2 -7 4 -13 4 -13 1
0 -3 14 -11 30 -16 17 -6 30 -15 30 -21 0 -5 5 -6 10 -3 6 3 10 2 10 -3 0 -6
7 -13 16 -16 10 -4 13 -2 9 7 -4 6 3 1 14 -12 12 -13 24 -21 27 -18 4 3 15 -4
26 -16 11 -12 17 -15 13 -7 -4 10 -2 9 8 -2 8 -10 17 -15 20 -11 4 3 7 1 7 -6
0 -7 7 -11 15 -8 8 4 17 1 21 -5 5 -7 2 -8 -6 -3 -9 5 -11 4 -6 -3 4 -7 12
-12 18 -12 6 0 20 -8 31 -17 11 -10 17 -12 13 -6 -5 9 -2 11 8 7 9 -3 13 -11
9 -17 -4 -6 0 -8 11 -4 9 4 15 3 12 -2 -5 -8 42 -36 57 -33 4 1 7 -2 7 -8 0
-5 7 -7 15 -3 10 3 15 0 13 -8 -2 -8 5 -14 14 -14 9 0 20 -4 25 -9 5 -5 2 -6
-6 -1 -10 6 -12 4 -7 -4 5 -7 14 -10 21 -7 7 2 16 -2 19 -9 3 -9 12 -12 22 -8
13 5 15 3 9 -7 -6 -10 -4 -12 9 -7 9 4 15 3 11 -2 -3 -5 8 -15 25 -23 16 -7
30 -17 30 -21 0 -5 4 -6 8 -3 5 3 18 -3 29 -14 12 -10 24 -16 27 -13 3 4 6 1
6 -6 0 -8 6 -11 16 -7 10 4 13 2 8 -6 -5 -8 -2 -9 9 -5 10 4 16 2 14 -6 -1 -7
6 -11 17 -9 12 2 16 -1 10 -9 -5 -9 -2 -10 9 -6 10 4 17 1 17 -6 0 -7 11 -17
25 -24 19 -8 24 -8 20 0 -3 7 2 2 11 -10 9 -13 23 -23 32 -23 8 0 21 -8 29
-17 10 -12 12 -13 8 -3 -4 10 -2 9 8 -2 8 -10 21 -18 30 -18 8 0 18 -7 21 -16
3 -8 10 -12 16 -9 5 3 10 2 10 -4 0 -6 7 -8 15 -4 10 3 15 0 13 -8 -2 -8 4
-13 14 -13 10 1 15 -3 11 -9 -4 -6 0 -8 11 -4 11 5 15 3 10 -4 -4 -7 -1 -10 7
-7 8 3 29 -9 48 -26 19 -17 31 -24 27 -16 -4 8 -1 7 8 -4 8 -10 20 -15 26 -11
6 4 9 1 8 -7 -2 -7 4 -13 12 -13 8 0 20 -7 27 -15 7 -8 13 -12 13 -7 0 4 9 -2
21 -14 12 -12 27 -18 37 -14 9 3 13 3 9 -1 -4 -4 2 -14 14 -22 11 -8 23 -11
26 -8 4 3 13 -3 21 -15 8 -11 20 -18 29 -15 8 3 11 1 8 -4 -3 -6 1 -10 9 -10
9 0 16 -5 16 -11 0 -6 6 -9 14 -6 8 3 17 -1 20 -9 3 -8 15 -14 26 -14 12 0 18
-4 15 -10 -6 -9 17 -15 40 -10 5 1 7 -2 3 -6 -10 -9 22 -33 43 -34 9 0 20 -7
23 -16 4 -9 13 -14 22 -10 10 4 13 2 8 -6 -5 -8 -2 -9 9 -5 10 4 16 2 14 -6
-1 -7 5 -12 13 -12 8 0 22 -7 30 -15 8 -9 13 -11 10 -5 -3 6 3 3 12 -8 9 -10
26 -19 37 -20 11 0 19 -6 18 -12 -1 -5 6 -9 17 -7 11 2 15 -1 11 -7 -3 -6 1
-11 9 -11 9 0 16 -5 16 -11 0 -6 7 -8 15 -5 9 3 18 -1 21 -9 4 -8 12 -15 19
-15 7 0 18 -7 25 -15 7 -9 15 -13 18 -10 3 2 11 -3 19 -13 10 -11 12 -12 8 -2
-4 10 -2 9 8 -2 8 -10 17 -15 20 -11 4 3 7 1 7 -6 0 -8 6 -11 17 -7 10 4 14 4
10 0 -10 -10 31 -37 43 -29 6 4 9 1 8 -7 -2 -7 5 -13 15 -13 10 0 22 -6 26
-14 5 -7 14 -10 20 -7 7 5 10 2 9 -6 -2 -8 4 -12 16 -10 10 2 15 -1 12 -7 -4
-6 5 -13 19 -17 14 -3 25 -11 25 -16 0 -6 8 -7 17 -4 10 4 14 4 10 0 -4 -4 7
-16 24 -26 17 -11 34 -17 36 -14 3 3 14 -5 25 -17 11 -12 17 -15 13 -7 -4 8 1
6 10 -5 9 -11 21 -19 26 -18 5 2 9 -1 9 -7 0 -5 7 -6 17 -3 11 4 14 3 9 -5 -6
-11 12 -17 36 -13 5 0 7 -5 5 -12 -1 -6 4 -11 11 -10 6 2 12 -2 12 -8 0 -6 7
-9 15 -5 8 3 14 0 12 -7 -1 -7 4 -11 11 -10 6 2 12 -2 12 -8 0 -5 5 -7 10 -4
6 3 10 1 10 -5 0 -6 5 -8 10 -5 6 3 13 0 16 -9 3 -8 12 -17 20 -20 10 -4 13
-1 9 7 -4 6 -1 5 7 -3 21 -25 84 -60 93 -52 5 4 4 1 0 -7 -6 -11 -4 -13 9 -8
11 5 15 3 10 -5 -5 -8 -2 -9 10 -5 9 4 15 3 12 -2 -3 -5 8 -14 24 -21 17 -7
30 -17 30 -22 0 -6 7 -7 16 -4 10 4 13 2 8 -6 -5 -8 -2 -9 10 -5 11 5 15 3 10
-5 -5 -8 -2 -9 9 -5 10 4 16 2 14 -6 -1 -7 6 -11 17 -9 11 2 15 -1 11 -7 -3
-6 1 -11 9 -11 9 0 16 -5 16 -11 0 -6 7 -8 16 -5 10 4 13 2 8 -6 -5 -8 -2 -9
10 -5 11 5 15 3 10 -5 -5 -8 -2 -9 10 -5 10 4 15 3 11 -3 -3 -6 1 -10 9 -10 9
0 16 -5 16 -11 0 -6 7 -9 15 -5 9 3 15 0 15 -10 0 -11 6 -14 16 -10 10 4 13 2
8 -6 -5 -8 -2 -9 10 -5 11 5 15 3 10 -5 -5 -8 -2 -9 10 -5 9 4 14 3 11 -2 -5
-8 25 -24 48 -26 5 0 14 -8 21 -17 7 -10 18 -18 25 -18 6 0 11 -4 11 -10 0 -5
7 -6 17 -3 10 4 14 2 10 -4 -8 -12 20 -26 34 -17 5 3 9 -2 9 -11 0 -9 5 -13
10 -10 6 3 10 1 10 -5 0 -7 7 -10 15 -6 8 3 14 0 12 -7 -1 -7 4 -11 11 -10 6
2 12 -2 12 -7 0 -6 5 -10 11 -10 6 0 25 -10 42 -22 18 -13 28 -16 23 -7 -4 7
-1 6 7 -3 8 -10 16 -16 19 -13 2 3 5 -2 5 -10 0 -8 -4 -12 -9 -9 -4 3 -8 0 -8
-5 0 -6 -9 -11 -21 -11 -11 0 -17 -4 -14 -10 3 -6 -1 -7 -9 -4 -11 4 -16 0
-16 -11 0 -11 -5 -15 -15 -11 -8 3 -15 1 -15 -4 0 -6 -6 -9 -12 -7 -7 1 -12
-3 -11 -10 2 -7 -4 -10 -12 -7 -8 4 -15 2 -15 -4 0 -5 -11 -13 -25 -16 -14 -4
-23 -11 -20 -17 4 -5 3 -8 -2 -7 -16 4 -53 -14 -48 -23 3 -5 -2 -6 -11 -2 -13
5 -15 3 -9 -7 5 -9 4 -11 -4 -6 -7 5 -19 0 -29 -12 -9 -10 -23 -17 -31 -14 -9
3 -11 0 -6 -7 4 -8 2 -11 -6 -10 -18 3 -50 -11 -45 -20 3 -4 -4 -8 -15 -8 -10
-1 -26 -9 -34 -17 -8 -8 -24 -18 -35 -21 -11 -4 -17 -11 -14 -17 5 -7 2 -8 -5
-4 -7 5 -19 0 -27 -10 -9 -11 -13 -13 -9 -7 4 9 1 11 -9 7 -9 -3 -16 -13 -16
-21 0 -8 -3 -12 -7 -10 -11 7 -74 -29 -66 -37 4 -4 0 -4 -9 -1 -10 4 -24 -1
-36 -12 -10 -10 -25 -19 -33 -21 -8 -2 -18 -8 -24 -14 -7 -8 -6 -8 4 -3 9 5
12 4 7 -3 -4 -6 -14 -8 -23 -5 -12 5 -14 3 -8 -7 5 -9 4 -11 -3 -6 -15 9 -55
-18 -44 -29 4 -4 -1 -5 -10 -2 -10 4 -18 2 -18 -3 0 -6 -4 -9 -9 -7 -5 1 -17
-7 -26 -18 -9 -11 -13 -14 -10 -7 6 11 3 11 -16 0 -13 -7 -28 -19 -32 -26 -5
-7 -12 -10 -18 -7 -5 4 -9 1 -9 -5 0 -6 -4 -8 -10 -5 -5 3 -10 -1 -10 -10 0
-9 -4 -13 -10 -10 -9 6 -70 -21 -70 -31 0 -3 5 -2 12 2 7 4 8 3 4 -4 -4 -6
-14 -8 -23 -5 -11 4 -14 3 -9 -6 6 -8 2 -11 -10 -9 -11 2 -18 -2 -17 -9 2 -7
-4 -10 -12 -7 -8 4 -15 2 -15 -4 0 -5 -11 -13 -25 -16 -14 -4 -23 -11 -20 -17
4 -5 3 -8 -2 -7 -16 4 -53 -14 -48 -23 3 -5 -2 -6 -11 -2 -12 4 -15 3 -10 -5
4 -8 2 -10 -7 -6 -8 3 -17 -2 -21 -11 -3 -9 -10 -13 -16 -10 -5 3 -10 1 -10
-5 0 -6 -4 -8 -10 -5 -5 3 -10 1 -10 -4 0 -6 -6 -10 -12 -8 -7 1 -12 -4 -10
-11 1 -8 -2 -11 -8 -7 -6 4 -18 -1 -26 -11 -9 -11 -12 -12 -8 -4 6 11 2 10
-13 -2 -11 -10 -23 -18 -28 -18 -5 0 -22 -12 -38 -27 -17 -16 -27 -22 -22 -15
6 11 3 12 -14 2 -12 -6 -19 -15 -16 -20 3 -6 -1 -7 -9 -4 -9 3 -16 1 -16 -6 0
-6 -4 -9 -9 -6 -4 3 -17 -2 -27 -10 -10 -9 -12 -12 -4 -8 8 4 13 5 10 1 -3 -3
-8 -5 -11 -4 -4 1 -17 -7 -30 -18 -12 -11 -19 -14 -15 -7 7 11 4 11 -12 1 -12
-7 -19 -17 -16 -21 3 -4 -3 -5 -12 -1 -12 4 -15 3 -10 -5 5 -8 0 -12 -14 -12
-12 0 -18 -4 -15 -10 3 -6 -1 -7 -9 -4 -9 3 -16 1 -16 -5 0 -6 -6 -10 -12 -8
-7 1 -12 -3 -11 -10 2 -8 -4 -10 -14 -6 -12 5 -14 3 -8 -7 6 -10 4 -12 -8 -7
-11 4 -17 1 -17 -9 0 -8 -4 -12 -10 -9 -11 7 -70 -25 -70 -38 0 -4 -4 -6 -9
-2 -6 3 -15 -4 -21 -15 -6 -11 -16 -18 -21 -14 -6 3 -17 -2 -25 -12 -9 -11
-12 -13 -8 -5 5 10 -2 9 -24 -4 -17 -10 -28 -23 -25 -28 3 -4 -3 -7 -13 -5
-11 2 -18 -2 -17 -9 2 -8 -4 -10 -14 -6 -11 4 -14 3 -9 -5 5 -8 2 -10 -8 -6
-9 3 -16 2 -16 -4 0 -5 -11 -13 -25 -16 -17 -4 -23 -11 -19 -19 4 -7 4 -9 -1
-5 -4 4 -20 -1 -35 -12 -15 -11 -30 -17 -34 -13 -3 3 -6 1 -6 -5 0 -6 -10 -14
-22 -18 -13 -3 -31 -14 -42 -23 -10 -9 -21 -16 -25 -16 -3 0 -5 -4 -3 -8 1 -5
-2 -5 -8 -2 -6 4 -19 -2 -28 -13 -9 -10 -23 -17 -31 -14 -9 3 -11 0 -6 -8 6
-10 4 -12 -9 -7 -10 4 -25 -2 -39 -16 -12 -12 -28 -21 -34 -19 -7 2 -13 -2
-13 -8 0 -5 -6 -10 -13 -10 -7 0 -22 -7 -33 -16 -10 -8 -13 -12 -5 -8 9 5 12
3 7 -5 -4 -6 -12 -9 -17 -5 -6 3 -22 -5 -36 -17 -15 -13 -23 -18 -19 -11 7 11
4 11 -12 1 -12 -7 -19 -16 -16 -20 2 -4 -4 -6 -14 -5 -9 0 -16 -4 -15 -11 2
-8 -4 -10 -14 -6 -11 4 -14 3 -9 -5 5 -8 1 -10 -10 -5 -13 5 -15 3 -9 -7 5 -9
4 -11 -4 -6 -7 5 -19 0 -29 -12 -9 -10 -23 -17 -29 -15 -7 3 -16 -2 -19 -11
-3 -9 -15 -16 -25 -16 -10 0 -19 -5 -19 -11 0 -5 -4 -7 -10 -4 -5 3 -10 -1
-10 -9 0 -9 -3 -15 -7 -14 -16 4 -53 -14 -48 -23 3 -5 -1 -6 -9 -3 -9 3 -16 1
-16 -5 0 -6 -8 -11 -17 -11 -24 -1 -55 -25 -45 -35 4 -5 -1 -5 -10 -2 -9 3
-18 3 -20 -1 -2 -4 -18 -18 -37 -31 -19 -13 -31 -17 -27 -10 4 8 1 6 -7 -3 -8
-10 -17 -15 -20 -11 -4 3 -7 1 -7 -5 0 -7 -6 -11 -12 -9 -7 1 -12 -3 -11 -10
2 -8 -4 -10 -14 -6 -11 4 -14 3 -9 -5 4 -8 2 -10 -7 -6 -8 3 -17 -2 -21 -11
-3 -9 -10 -13 -16 -10 -6 3 -13 0 -16 -9 -3 -8 -12 -12 -19 -10 -7 3 -16 0
-21 -7 -5 -8 -3 -10 6 -4 9 5 11 4 6 -4 -4 -6 -12 -9 -17 -5 -6 3 -17 -2 -25
-12 -9 -11 -13 -12 -9 -4 4 8 -3 4 -15 -10 -12 -14 -19 -19 -15 -11 9 16 -43
-16 -63 -39 -8 -9 -11 -10 -7 -2 6 11 3 12 -13 3 -11 -6 -22 -18 -26 -27 -4
-9 -13 -14 -21 -10 -8 3 -15 1 -15 -5 0 -6 -4 -8 -9 -5 -5 3 -12 -1 -15 -10
-3 -8 -10 -12 -16 -9 -5 3 -10 1 -10 -4 0 -6 -7 -11 -16 -11 -9 0 -12 -5 -8
-11 4 -7 1 -10 -7 -7 -14 5 -69 -17 -69 -28 0 -3 5 -2 12 2 7 4 8 3 4 -4 -4
-6 -12 -9 -19 -6 -7 2 -21 -3 -32 -12 -11 -8 -14 -12 -6 -8 10 5 12 3 7 -5 -5
-7 -14 -10 -22 -7 -8 3 -14 1 -14 -4 0 -6 -6 -9 -12 -7 -7 1 -12 -4 -10 -11 1
-8 -2 -11 -9 -6 -6 3 -15 1 -19 -6 -5 -9 -17 -10 -36 -5 -16 5 -32 8 -36 7 -5
-1 -7 4 -5 11 1 6 -6 12 -16 12 -10 0 -23 8 -28 17 -6 11 -16 15 -26 11 -11
-4 -14 -3 -9 5 5 8 0 12 -14 12 -12 0 -19 4 -16 9 3 5 -1 12 -10 15 -10 4 -13
2 -9 -7 4 -6 0 -4 -8 6 -8 9 -19 17 -26 17 -6 0 -11 5 -11 11 0 5 -5 7 -10 4
-6 -4 -20 4 -31 17 -11 13 -18 16 -14 8 4 -10 2 -9 -8 2 -8 10 -17 15 -20 11
-4 -3 -7 -1 -7 6 0 8 -7 11 -15 7 -8 -3 -14 0 -12 7 1 7 -6 11 -15 9 -9 -1
-22 6 -30 16 -17 24 -44 41 -34 21 4 -8 0 -5 -8 5 -9 11 -16 16 -16 11 0 -5
-7 0 -16 11 -8 10 -13 12 -9 4 4 -8 -1 -6 -9 4 -9 11 -16 16 -16 11 0 -5 -7 0
-16 11 -8 10 -13 12 -9 4 4 -9 0 -7 -9 4 -8 10 -19 15 -25 12 -5 -4 -15 3 -21
14 -7 13 -17 19 -26 16 -10 -4 -12 -2 -8 6 5 8 2 9 -9 5 -10 -4 -16 -2 -14 5
1 5 -6 12 -15 13 -10 2 -25 10 -34 19 -14 15 -22 18 -41 15 -3 0 -10 6 -15 15
-12 21 -53 44 -44 24 4 -7 -1 -3 -10 10 -9 12 -25 22 -35 22 -11 0 -19 5 -19
11 0 5 -5 7 -10 4 -6 -3 -13 1 -16 10 -4 9 -13 14 -21 11 -8 -3 -12 -2 -9 3 3
5 -1 12 -10 15 -10 4 -13 1 -9 -7 3 -6 -2 -2 -11 11 -9 12 -24 22 -34 22 -10
0 -21 7 -24 16 -4 9 -13 14 -22 10 -10 -4 -13 -2 -8 6 5 8 2 9 -9 5 -10 -4
-16 -2 -14 6 1 7 -4 11 -10 10 -7 -2 -13 1 -13 7 0 5 -7 6 -17 3 -11 -4 -14
-3 -9 5 4 7 1 12 -8 12 -9 0 -16 5 -16 11 0 6 -7 8 -16 5 -10 -4 -13 -2 -8 6
5 8 2 9 -10 5 -10 -4 -15 -3 -11 3 3 6 -1 10 -9 10 -9 0 -16 5 -16 10 0 6 -5
10 -11 10 -6 0 -25 10 -42 22 -18 13 -28 16 -23 7 4 -7 -2 -3 -14 11 -12 14
-19 18 -15 10 4 -10 2 -9 -8 2 -8 10 -17 15 -20 11 -4 -3 -7 -1 -7 5 0 6 -14
19 -31 28 -23 11 -29 12 -24 2 3 -7 0 -5 -9 6 -8 10 -20 15 -27 10 -7 -4 -10
-3 -7 2 3 5 -6 18 -21 29 -16 12 -22 14 -16 4 6 -8 3 -7 -6 3 -9 9 -19 14 -23
11 -3 -4 -6 -1 -6 6 0 8 -6 11 -16 7 -10 -4 -13 -2 -8 6 5 8 2 9 -10 5 -9 -4
-15 -3 -12 1 3 4 -4 14 -16 21 -16 10 -19 10 -13 -1 4 -7 -3 -2 -15 12 -12 14
-19 18 -15 10 4 -10 2 -9 -8 2 -8 10 -17 15 -20 11 -4 -3 -7 -1 -7 5 0 7 -7
12 -15 12 -8 0 -15 5 -15 11 0 6 -6 9 -14 6 -8 -3 -17 0 -20 8 -3 8 -15 19
-27 25 -17 10 -20 9 -14 -2 3 -7 0 -5 -9 6 -19 23 -70 51 -61 33 4 -7 -3 -2
-14 11 -12 14 -25 20 -32 16 -8 -5 -9 -3 -4 6 6 10 4 12 -8 7 -9 -3 -19 -1
-23 5 -5 7 -2 8 6 3 9 -5 11 -4 6 3 -4 7 -13 12 -20 12 -7 0 -26 10 -42 22
-16 13 -25 16 -20 8 4 -8 1 -7 -8 4 -8 10 -20 15 -27 10 -7 -4 -10 -3 -6 3 8
12 -20 27 -42 24 -7 -1 -10 2 -6 8 3 7 -3 11 -15 11 -12 0 -19 4 -16 9 3 5 -1
12 -10 15 -10 4 -13 2 -9 -7 4 -6 -1 -3 -10 8 -9 11 -21 19 -26 18 -5 -2 -9 1
-9 7 0 5 -7 7 -15 4 -10 -4 -15 0 -15 11 0 11 -5 15 -16 11 -8 -3 -13 -2 -10
3 3 5 -1 12 -10 15 -10 4 -13 2 -9 -7 4 -6 -3 -1 -15 13 -12 14 -19 18 -15 10
4 -10 2 -9 -8 2 -8 10 -17 15 -20 11 -4 -3 -7 -1 -7 5 0 6 -10 16 -21 23 -17
9 -20 8 -14 -3 3 -7 0 -5 -8 4 -8 10 -17 15 -20 11 -4 -3 -7 -1 -7 6 0 7 -4
10 -9 7 -5 -3 -11 1 -15 9 -3 8 -12 15 -21 15 -8 0 -15 5 -15 11 0 6 -7 8 -16
5 -10 -4 -13 -2 -8 6 5 8 2 9 -10 5 -11 -5 -15 -3 -10 5 5 8 2 9 -9 5 -10 -4
-16 -2 -14 6 1 7 -6 11 -18 9 -11 -2 -17 -1 -13 4 11 10 -30 37 -44 28 -7 -4
-8 -3 -4 4 4 7 1 13 -6 14 -7 0 -20 2 -28 2 -8 1 -14 7 -13 14 3 12 -9 16 -36
13 -7 -2 -10 2 -7 8 4 5 -3 15 -15 21 -17 10 -20 9 -14 -2 4 -8 2 -8 -7 2 -7
8 -22 22 -32 30 -18 13 -19 13 -12 0 4 -8 0 -6 -8 4 -9 11 -16 17 -16 13 0 -4
-9 2 -21 14 -12 12 -27 18 -37 14 -9 -3 -13 -3 -9 1 10 10 -31 36 -45 28 -6
-4 -8 -3 -5 3 3 5 -8 18 -25 28 -21 12 -28 14 -23 4 5 -8 -4 -1 -20 14 -16 15
-33 26 -39 24 -6 -2 -19 6 -29 17 -10 12 -16 14 -12 6 4 -10 2 -9 -8 3 -8 9
-19 17 -26 17 -6 0 -11 5 -11 11 0 5 -4 7 -10 4 -5 -3 -10 -2 -10 4 0 6 -7 7
-17 4 -11 -4 -14 -3 -9 5 4 7 1 12 -8 12 -9 0 -16 5 -16 11 0 6 -7 9 -15 5 -8
-3 -18 0 -22 7 -5 7 -17 19 -27 27 -18 13 -19 13 -12 0 4 -9 2 -8 -7 2 -8 10
-17 15 -20 11 -4 -3 -7 -1 -7 5 0 6 -10 16 -21 23 -17 9 -20 8 -14 -3 3 -7 -1
-4 -10 7 -9 11 -20 20 -25 20 -5 0 -19 8 -30 18 -12 10 -26 15 -32 11 -6 -4
-8 -3 -5 3 4 6 0 14 -9 17 -10 4 -13 2 -9 -7 4 -6 0 -4 -8 6 -8 9 -17 17 -21
17 -4 0 -23 11 -43 25 -20 13 -41 21 -46 18 -6 -3 -7 -2 -4 4 4 6 -5 15 -19
22 -20 9 -24 9 -19 -1 4 -7 -1 -4 -10 7 -9 11 -21 19 -26 18 -5 -2 -9 1 -9 7
0 5 -10 14 -21 21 -17 9 -20 8 -14 -3 4 -7 -2 -3 -14 10 -12 12 -26 20 -31 17
-4 -3 -11 2 -14 11 -4 9 -9 14 -13 11 -3 -4 -12 1 -20 11 -10 11 -12 12 -8 2
4 -9 0 -7 -9 4 -8 10 -19 15 -25 12 -5 -4 -13 -1 -17 5 -5 8 -3 9 6 4 9 -5 11
-4 6 3 -4 7 -16 12 -27 12 -10 0 -19 4 -19 10 0 5 -7 7 -15 3 -10 -3 -15 0
-13 8 2 8 -3 13 -9 12 -7 -2 -13 2 -13 8 0 6 -7 9 -15 6 -8 -4 -17 -1 -21 5
-4 7 -3 8 4 4 7 -4 12 -5 12 -2 0 3 -10 10 -21 17 -15 7 -19 8 -15 0 5 -7 1
-9 -8 -5 -9 3 -13 10 -10 15 3 5 -2 9 -10 9 -9 0 -16 5 -16 11 0 5 -4 7 -10 4
-5 -3 -10 -1 -10 4 0 6 -6 11 -14 11 -7 0 -19 7 -26 15 -7 8 -16 12 -21 9 -5
-3 -9 -1 -9 5 0 6 -7 8 -15 5 -10 -4 -15 0 -15 11 0 11 -5 15 -16 11 -10 -4
-13 -2 -8 6 5 8 2 9 -9 5 -9 -3 -19 -1 -23 5 -5 7 -2 8 7 4 8 -4 5 0 -6 8 -11
9 -25 14 -32 12 -7 -3 -13 -1 -13 4 0 5 -9 7 -20 5 -11 -2 -20 -2 -20 0 0 2
55 37 123 76 184 108 271 161 277 168 3 3 10 7 17 8 16 3 255 144 268 157 6 6
17 12 25 14 8 2 68 35 135 74 66 39 148 88 182 108 35 20 60 39 57 42 -3 3 1
5 8 4 21 -2 168 86 161 97 -3 6 -1 7 5 3 8 -5 124 55 142 74 3 3 30 18 60 34
30 16 60 35 67 43 6 8 14 13 18 12 12 -3 105 52 105 63 0 6 3 8 6 5 11 -10 45
13 38 25 -4 7 -3 8 4 4 7 -4 56 19 109 51 54 32 110 64 125 72 15 7 25 18 21
24 -3 5 -1 7 4 4 9 -6 51 14 113 53 8 6 61 36 117 68 57 33 101 61 98 64 -3 2
1 5 7 5 7 0 83 41 168 90 405 234 596 347 605 356 7 7 5 7 -4 2 -10 -5 -12 -4
-7 4 4 6 11 9 16 6 8 -5 49 17 208 110 10 6 55 32 102 59 47 27 87 52 90 56 3
3 14 10 24 14 11 3 69 36 130 73 92 55 124 71 164 82 2 1 0 -4 -4 -11z m4216
-1613 c0 -2 -6 -5 -13 -8 -8 -3 -14 1 -14 8 0 7 6 11 14 8 7 -3 13 -6 13 -8z
m-3 -198 c0 -8 -6 -14 -12 -14 -6 0 -12 6 -12 14 0 7 6 13 12 13 6 0 12 -6 12
-13z m-3 -92 c-4 -8 -8 -15 -10 -15 -2 0 -4 7 -4 15 0 8 4 15 10 15 5 0 7 -7
4 -15z m6 -219 c0 -11 -19 -15 -25 -6 -3 5 1 10 9 10 9 0 16 -2 16 -4z m-5
-115 c3 -5 1 -12 -5 -16 -5 -3 -10 1 -10 9 0 18 6 21 15 7z"/>
<path d="M15950 12090 c-9 -6 -10 -10 -3 -10 6 0 15 5 18 10 8 12 4 12 -15 0z"/>
<path d="M18990 8930 c0 -5 7 -7 15 -4 8 4 15 8 15 10 0 2 -7 4 -15 4 -8 0
-15 -4 -15 -10z"/>
</g>
</svg>
